<?xml version="1.0" encoding="utf-8"?>
<svg viewBox="0 0 322 229" xmlns="http://www.w3.org/2000/svg">
  <g id="_003" data-name="003" transform="matrix(1, 0, 0, 1, -40.862404, -41.970623)">
    <path d="M356.5,231.33H43.5a.46.46,0,0,1-.46-.46.47.47,0,0,1,.46-.46h313a.47.47,0,0,1,.46.46A.46.46,0,0,1,356.5,231.33Z" fill="#d1d3d4"/>
    <rect x="66.93" y="44.49" width="272.15" height="166.33" rx="5.37" fill="#fff"/>
    <path d="M333.7,211.32H72.3a5.88,5.88,0,0,1-5.87-5.88V49.86A5.87,5.87,0,0,1,72.3,44H333.7a5.87,5.87,0,0,1,5.87,5.87V205.44A5.88,5.88,0,0,1,333.7,211.32ZM72.3,45a4.87,4.87,0,0,0-4.87,4.87V205.44a4.88,4.88,0,0,0,4.87,4.88H333.7a4.88,4.88,0,0,0,4.87-4.88V49.86A4.87,4.87,0,0,0,333.7,45Z" fill="#231f20"/>
    <path d="M187.75,163.67H82.63a.46.46,0,0,1-.46-.46.47.47,0,0,1,.46-.46H187.75a.47.47,0,0,1,.46.46A.46.46,0,0,1,187.75,163.67Z" fill="#d1d3d4"/>
    <path d="M139.32,202.34a.46.46,0,0,1-.46-.46V163a.46.46,0,0,1,.46-.46.47.47,0,0,1,.46.46v38.86A.47.47,0,0,1,139.32,202.34Z" fill="#d1d3d4"/>
    <path d="M320.64,137.77H199.76a.46.46,0,0,1-.46-.46.45.45,0,0,1,.46-.46H320.64a.45.45,0,0,1,.46.46A.46.46,0,0,1,320.64,137.77Z" fill="#d1d3d4"/>
    <path d="M320.64,149.59H199.76a.45.45,0,0,1-.46-.46.46.46,0,0,1,.46-.46H320.64a.46.46,0,0,1,.46.46A.45.45,0,0,1,320.64,149.59Z" fill="#d1d3d4"/>
    <path d="M320.64,161.42H199.76a.46.46,0,0,1,0-.92H320.64a.46.46,0,1,1,0,.92Z" fill="#d1d3d4"/>
    <path d="M320.64,173.25H199.76a.47.47,0,0,1,0-.93H320.64a.47.47,0,0,1,0,.93Z" fill="#d1d3d4"/>
    <path d="M320.64,185.07H199.76a.46.46,0,0,1,0-.92H320.64a.46.46,0,1,1,0,.92Z" fill="#d1d3d4"/>
    <path d="M326.84,121.81H187.18a.46.46,0,0,1-.46-.46.47.47,0,0,1,.46-.46H326.84a.47.47,0,0,1,.46.46A.46.46,0,0,1,326.84,121.81Z" fill="#d1d3d4"/>
    <rect x="199.38" y="77.99" width="48.05" height="32.66" rx="2.08" fill="#522020"/>
    <path d="M187.56,201.4a.45.45,0,0,1-.46-.46V68.56a.46.46,0,0,1,.46-.46.47.47,0,0,1,.46.46V200.94A.46.46,0,0,1,187.56,201.4Z" fill="#d1d3d4"/>
    <path d="M327.77,68.69h-250a.46.46,0,0,1-.46-.46.47.47,0,0,1,.46-.46h250a.47.47,0,0,1,.47.46A.46.46,0,0,1,327.77,68.69Z" fill="#d1d3d4"/>
    <path d="M322.62,202.68H83.38a5.88,5.88,0,0,1-5.88-5.87V58.5a5.89,5.89,0,0,1,5.88-5.88H322.62a5.89,5.89,0,0,1,5.88,5.88V196.81A5.88,5.88,0,0,1,322.62,202.68ZM83.38,53.62A4.89,4.89,0,0,0,78.5,58.5V196.81a4.88,4.88,0,0,0,4.88,4.87H322.62a4.88,4.88,0,0,0,4.88-4.87V58.5a4.89,4.89,0,0,0-4.88-4.88Z" fill="#231f20"/>
    <path d="M230.7,210.87,202,210.8l-28.69.07s-2.53,26-19,37.13h95.41C233.23,236.9,230.7,210.87,230.7,210.87Z" fill="#fff"/>
    <path d="M249.71,248.5H154.29a.49.49,0,0,1-.47-.35.48.48,0,0,1,.2-.56c16.09-10.84,18.76-36.51,18.79-36.77a.5.5,0,0,1,.5-.45L202,210.3l28.7.07a.51.51,0,0,1,.5.45c0,.26,2.7,25.93,18.79,36.77a.51.51,0,0,1,.2.56A.5.5,0,0,1,249.71,248.5Zm-93.85-1h92.29c-14.2-10.69-17.47-32.71-17.89-36.13L202,211.3l-28.25.07C173.32,214.79,170.06,236.81,155.86,247.5Z" fill="#231f20"/>
    <rect x="142.21" y="248" width="119.59" height="9.9" rx="4.86" fill="#fff"/>
    <path d="M256.94,258.41H147.07a5.37,5.37,0,0,1-5.36-5.36v-.19a5.37,5.37,0,0,1,5.36-5.36H256.94a5.37,5.37,0,0,1,5.36,5.36v.19A5.37,5.37,0,0,1,256.94,258.41ZM147.07,248.5a4.37,4.37,0,0,0-4.36,4.36v.19a4.37,4.37,0,0,0,4.36,4.36H256.94a4.37,4.37,0,0,0,4.36-4.36v-.19a4.37,4.37,0,0,0-4.36-4.36Z" fill="#231f20"/>
    <circle cx="93.67" cy="61.38" r="3.13" fill="#522020"/>
    <circle cx="105.9" cy="61.38" r="3.13" fill="#231f20"/>
    <circle cx="118.14" cy="61.38" r="3.13" fill="#231f20"/>
    <path d="M95.17,128.84a4.63,4.63,0,0,1,.09,5.79l.29,0" fill="#fff"/>
    <rect x="95.77" y="96.18" width="73.19" height="34.73" rx="3.34" fill="#fff"/>
    <path d="M165.62,131.41H99.11a3.84,3.84,0,0,1-3.84-3.84v-28a3.84,3.84,0,0,1,3.84-3.84h66.51a3.84,3.84,0,0,1,3.84,3.84v28.05A3.84,3.84,0,0,1,165.62,131.41ZM99.11,96.68a2.84,2.84,0,0,0-2.84,2.84v28.05a2.84,2.84,0,0,0,2.84,2.84h66.51a2.84,2.84,0,0,0,2.84-2.84v-28a2.84,2.84,0,0,0-2.84-2.84Z" fill="#231f20"/>
    <circle cx="112.64" cy="113.55" r="9.29" fill="#231f20"/>
    <path d="M160.94,109.12H131.43a.5.5,0,0,1,0-1h29.51a.5.5,0,0,1,0,1Z" fill="#231f20"/>
    <path d="M160.94,114.05H131.43a.5.5,0,0,1-.5-.5.5.5,0,0,1,.5-.5h29.51a.5.5,0,0,1,.5.5A.5.5,0,0,1,160.94,114.05Z" fill="#231f20"/>
    <path d="M150.69,119H131.43a.5.5,0,0,1-.5-.5.5.5,0,0,1,.5-.5h19.26a.5.5,0,0,1,.5.5A.5.5,0,0,1,150.69,119Z" fill="#231f20"/>
    <path d="M86.43,120.32a6.74,6.74,0,0,1-1.94.85,2.67,2.67,0,0,1-2.68-.47,3.11,3.11,0,0,1-.57-1.08" fill="#fff"/>
    <path d="M293,163.33l1.85-.05a4.1,4.1,0,0,1,3.86,2.31l36.09,99.71c.48,1.32-.48,2.43-2.14,2.48l-1.84.05a4.14,4.14,0,0,1-3.87-2.31L290.89,165.8C290.42,164.48,291.37,163.37,293,163.33Z" fill="#fff"/>
    <path d="M330.74,268.33a4.58,4.58,0,0,1-4.23-2.64L290.42,166a2.18,2.18,0,0,1,.21-2,2.91,2.91,0,0,1,2.39-1.13l1.84-.05a4.65,4.65,0,0,1,4.35,2.63l36.09,99.72a2.17,2.17,0,0,1-.21,2,2.9,2.9,0,0,1-2.38,1.13l-1.85.05Zm-37.69-104.5a1.93,1.93,0,0,0-1.59.69,1.19,1.19,0,0,0-.1,1.11l36.09,99.72a3.68,3.68,0,0,0,3.38,2l1.85-.05a2,2,0,0,0,1.59-.7,1.19,1.19,0,0,0,.09-1.11l-36.09-99.72a3.62,3.62,0,0,0-3.38-2l-1.84.05Zm0-.5h0Z" fill="#d1d3d4"/>
    <path d="M295,171.16l-33.52.57a3.15,3.15,0,0,1-2.93-1.75h0c-.36-1,.37-1.84,1.62-1.87l33.52-.57a3.13,3.13,0,0,1,2.93,1.75h0C297,170.29,296.28,171.13,295,171.16Z" fill="#fff"/>
    <path d="M261.42,172.23a3.61,3.61,0,0,1-3.32-2.08,1.76,1.76,0,0,1,.18-1.64,2.3,2.3,0,0,1,1.9-.9L293.7,167a3.57,3.57,0,0,1,3.41,2.08,1.76,1.76,0,0,1-.17,1.63,2.29,2.29,0,0,1-1.9.91h0l-33.52.57ZM293.79,168h-.06l-33.53.57a1.33,1.33,0,0,0-1.1.47.8.8,0,0,0-.06.73,2.62,2.62,0,0,0,2.45,1.42l33.52-.57a1.33,1.33,0,0,0,1.1-.47.77.77,0,0,0,.06-.73A2.63,2.63,0,0,0,293.79,168Zm1.23,3.12h0Z" fill="#d1d3d4"/>
    <path d="M300.06,185.07l-33.52.57a3.13,3.13,0,0,1-2.93-1.75h0c-.36-1,.36-1.84,1.62-1.87l33.52-.57a3.15,3.15,0,0,1,2.93,1.75h0C302,184.2,301.31,185,300.06,185.07Z" fill="#fff"/>
    <path d="M266.45,186.14a3.6,3.6,0,0,1-3.31-2.08,1.76,1.76,0,0,1,.17-1.63,2.3,2.3,0,0,1,1.91-.91l33.52-.57a3.63,3.63,0,0,1,3.41,2.08,1.79,1.79,0,0,1-.17,1.64,2.33,2.33,0,0,1-1.91.9h0l-33.52.57ZM298.83,182h-.07l-33.52.57a1.32,1.32,0,0,0-1.1.47.77.77,0,0,0-.06.73,2.61,2.61,0,0,0,2.45,1.42l33.52-.57a1.32,1.32,0,0,0,1.1-.47.8.8,0,0,0,.06-.73A2.65,2.65,0,0,0,298.83,182Zm1.23,3.12h0Z" fill="#d1d3d4"/>
    <path d="M305.09,199l-33.52.56a3.13,3.13,0,0,1-2.93-1.74h0c-.36-1,.37-1.84,1.62-1.88l33.52-.56a3.11,3.11,0,0,1,2.93,1.75h0C307.07,198.12,306.35,199,305.09,199Z" fill="#fff"/>
    <path d="M271.49,200.06a3.61,3.61,0,0,1-3.32-2.08,1.75,1.75,0,0,1,.18-1.64,2.33,2.33,0,0,1,1.9-.91l33.52-.56a3.58,3.58,0,0,1,3.41,2.08,1.76,1.76,0,0,1-.17,1.63,2.32,2.32,0,0,1-1.9.91h0l-33.52.56Zm32.37-4.19h-.06l-33.53.56a1.39,1.39,0,0,0-1.1.47.79.79,0,0,0-.05.74,2.58,2.58,0,0,0,2.44,1.41l33.52-.56a1.36,1.36,0,0,0,1.1-.47.77.77,0,0,0,.06-.73A2.63,2.63,0,0,0,303.86,195.87Zm1.23,3.12h0Z" fill="#d1d3d4"/>
    <path d="M310.13,212.9l-33.52.57a3.13,3.13,0,0,1-2.93-1.75h0c-.36-1,.36-1.84,1.62-1.87l33.52-.57a3.14,3.14,0,0,1,2.93,1.75h0C312.11,212,311.38,212.87,310.13,212.9Z" fill="#fff"/>
    <path d="M276.52,214a3.6,3.6,0,0,1-3.31-2.08,1.79,1.79,0,0,1,.17-1.64,2.32,2.32,0,0,1,1.91-.9l33.52-.57a3.59,3.59,0,0,1,3.41,2.08,1.76,1.76,0,0,1-.17,1.63,2.31,2.31,0,0,1-1.91.91h0l-33.52.57Zm32.38-4.19h-.07l-33.52.57a1.32,1.32,0,0,0-1.1.47.77.77,0,0,0-.06.73A2.62,2.62,0,0,0,276.6,213l33.52-.57a1.32,1.32,0,0,0,1.1-.47.8.8,0,0,0,.06-.73A2.64,2.64,0,0,0,308.9,209.78Zm1.23,3.12h0Z" fill="#d1d3d4"/>
    <path d="M315.16,226.82l-33.52.56a3.11,3.11,0,0,1-2.92-1.75h0c-.37-1,.36-1.83,1.61-1.87l33.52-.56a3.11,3.11,0,0,1,2.93,1.74h0C317.14,225.94,316.42,226.78,315.16,226.82Z" fill="#fff"/>
    <path d="M281.56,227.88a3.59,3.59,0,0,1-3.31-2.08,1.71,1.71,0,0,1,.17-1.63,2.3,2.3,0,0,1,1.9-.91l33.52-.56a3.58,3.58,0,0,1,3.41,2.07,1.78,1.78,0,0,1-.17,1.64,2.35,2.35,0,0,1-1.9.91h0l-33.52.56Zm32.37-4.19h-.06l-33.53.56a1.39,1.39,0,0,0-1.1.47.8.8,0,0,0-.05.73,2.6,2.6,0,0,0,2.44,1.42l33.52-.56a1.36,1.36,0,0,0,1.1-.47.79.79,0,0,0,.06-.74A2.63,2.63,0,0,0,313.93,223.69Zm1.23,3.13h0Z" fill="#d1d3d4"/>
    <path d="M320.2,240.73l-33.52.57a3.13,3.13,0,0,1-2.93-1.75h0c-.36-1,.36-1.84,1.62-1.87l33.52-.57a3.14,3.14,0,0,1,2.93,1.75h0C322.18,239.86,321.45,240.7,320.2,240.73Z" fill="#fff"/>
    <path d="M286.59,241.8a3.6,3.6,0,0,1-3.31-2.08,1.78,1.78,0,0,1,.17-1.64,2.32,2.32,0,0,1,1.91-.9l33.52-.57a3.61,3.61,0,0,1,3.41,2.08,1.76,1.76,0,0,1-.17,1.63,2.31,2.31,0,0,1-1.91.91h0l-33.52.57ZM319,237.61h-.07l-33.52.57a1.32,1.32,0,0,0-1.1.47.77.77,0,0,0-.06.73,2.61,2.61,0,0,0,2.45,1.42l33.52-.57a1.34,1.34,0,0,0,1.1-.47.8.8,0,0,0,.06-.73A2.64,2.64,0,0,0,319,237.61Zm1.23,3.12h0Z" fill="#d1d3d4"/>
    <path d="M325.23,254.64l-33.51.57a3.13,3.13,0,0,1-2.93-1.75h0c-.37-1,.36-1.84,1.61-1.87l33.52-.57a3.13,3.13,0,0,1,2.93,1.75h0C327.21,253.77,326.49,254.61,325.23,254.64Z" fill="#fff"/>
    <path d="M291.63,255.71a3.59,3.59,0,0,1-3.31-2.08,1.73,1.73,0,0,1,.17-1.63,2.28,2.28,0,0,1,1.9-.91l33.52-.57a3.6,3.6,0,0,1,3.41,2.08,1.78,1.78,0,0,1-.17,1.64,2.31,2.31,0,0,1-1.9.9h0l-33.52.57ZM324,251.52h-.06l-33.53.57a1.33,1.33,0,0,0-1.1.47.8.8,0,0,0-.05.73,2.59,2.59,0,0,0,2.44,1.42l33.52-.57a1.3,1.3,0,0,0,1.1-.47.77.77,0,0,0,.06-.73A2.63,2.63,0,0,0,324,251.52Zm1.23,3.12h0Z" fill="#d1d3d4"/>
    <path d="M256.91,164l1.84-.06a4.14,4.14,0,0,1,3.87,2.31l36.09,99.72c.47,1.32-.48,2.43-2.14,2.47l-1.85,0a4.1,4.1,0,0,1-3.86-2.3l-36.09-99.72C254.29,165.12,255.25,164,256.91,164Z" fill="#fff"/>
    <path d="M294.62,269a4.58,4.58,0,0,1-4.23-2.63L254.3,166.61a2.17,2.17,0,0,1,.21-2,2.89,2.89,0,0,1,2.38-1.12h0l1.85-.05a4.57,4.57,0,0,1,4.35,2.63l36.09,99.72a2.18,2.18,0,0,1-.21,2,2.91,2.91,0,0,1-2.39,1.13l-1.84,0Zm-37.7-104.49a1.91,1.91,0,0,0-1.58.69,1.16,1.16,0,0,0-.1,1.11L291.33,266a3.63,3.63,0,0,0,3.38,2l1.84,0a1.92,1.92,0,0,0,1.59-.69,1.19,1.19,0,0,0,.1-1.11l-36.09-99.72a3.61,3.61,0,0,0-3.38-2Z" fill="#d1d3d4"/>
    <path d="M282.11,105.37c-7.19,4.17-15.51,7.43-23.95,5.79C251,109.78,244.54,105,242,98.08c-.51-1.36-.83-2.79-1.37-4.15-.22-.54-.56-1.14-1.14-1.19-.94-.08-1.26,1.22-1.15,2.15.09.75.18,1.44.2,2.18,0,.51,0,1.84.45,2.22l-6.4-6.2a2.51,2.51,0,0,0-1.1-.73.86.86,0,0,0-1.06.55,1.24,1.24,0,0,0,.38,1l2.55,3.29a44.41,44.41,0,0,0-3.53-2.74c-1.64-1.13-2.15.53-1.18,1.78l2.59,3.33a23.44,23.44,0,0,0-2.76-2.42c-.29-.22-.68-.43-1-.23a.6.6,0,0,0-.17.66,1.66,1.66,0,0,0,.4.61l2.41,2.75c-.42-.42-2.5-2.38-3.06-1.31-.32.61.87,1.58,1.23,1.94,2.35,2.3,4.73,4.5,7.16,6.67,6.53,5.84,14,11.25,22.81,13.24,9.65,2.19,20.25-.3,28.38-5.87" fill="#fff"/>
    <path d="M265.43,122.72a33,33,0,0,1-7.31-.8c-9.74-2.21-17.81-8.68-23-13.35-2.69-2.41-5-4.6-7.16-6.69l-.17-.15c-.61-.57-1.62-1.51-1.16-2.38a1,1,0,0,1,.77-.57l.2,0-.26-.29a2.33,2.33,0,0,1-.5-.79,1.1,1.1,0,0,1,.37-1.22,1,1,0,0,1,.93-.11,2,2,0,0,1-.13-2.46c.18-.19.86-.74,2.09.11l.38.27-.08-.1a1.77,1.77,0,0,1-.47-1.35,1.16,1.16,0,0,1,.52-.75,1.47,1.47,0,0,1,1.14-.2,3,3,0,0,1,1.33.86l5.14,5,0-.61a17.41,17.41,0,0,0-.15-1.76l-.05-.38a3,3,0,0,1,.61-2.3,1.32,1.32,0,0,1,1.08-.41c.66.06,1.19.57,1.56,1.51.3.74.53,1.51.76,2.25s.39,1.28.62,1.91c2.41,6.44,8.48,11.33,15.84,12.76,6.91,1.35,14.63-.53,23.6-5.73a.5.5,0,1,1,.5.86c-9.19,5.33-17.13,7.24-24.29,5.85-7.7-1.49-14.06-6.63-16.59-13.39-.24-.65-.44-1.31-.64-2s-.45-1.47-.73-2.17c-.15-.39-.4-.85-.72-.88a.33.33,0,0,0-.28.11,2.07,2.07,0,0,0-.32,1.49l0,.37c.07.62.14,1.21.16,1.84,0,1.51.24,1.82.29,1.88a.48.48,0,0,1,0,.7.49.49,0,0,1-.7,0h0l-6.4-6.19a2.24,2.24,0,0,0-.86-.61.56.56,0,0,0-.38.07.16.16,0,0,0-.08.1c0,.14.18.41.28.54l2.56,3.3a.5.5,0,0,1-.72.68,41.87,41.87,0,0,0-3.5-2.71c-.41-.28-.7-.33-.79-.24s-.16.72.29,1.3l2.59,3.33a.5.5,0,0,1-.06.69.51.51,0,0,1-.69,0,23.25,23.25,0,0,0-2.7-2.37.9.9,0,0,0-.4-.21s0,0,0,.1a1.45,1.45,0,0,0,.29.42l2.42,2.75a.5.5,0,0,1,0,.69.51.51,0,0,1-.7,0c-1-1-1.92-1.52-2.22-1.47-.06.13,0,.42.91,1.22l.18.18c2.12,2.08,4.46,4.25,7.14,6.65,5.14,4.6,13.08,11,22.59,13.12,9.19,2.09,19.65-.08,28-5.79a.5.5,0,1,1,.57.82A38.43,38.43,0,0,1,265.43,122.72Z" fill="#231f20"/>
    <path d="M315.5,215.17l.9,6.59s-18.34,1.9-17.63.32a68.46,68.46,0,0,1,4.42-6.62" fill="#fff"/>
    <path d="M302.64,223.2c-2.27,0-3.93-.17-4.26-.64a.68.68,0,0,1-.07-.69,68.38,68.38,0,0,1,4.48-6.71.51.51,0,0,1,.7-.1.5.5,0,0,1,.1.7c0,.05-3.33,4.51-4.24,6.26,1.52.46,9.26,0,16.49-.7l-.84-6.09a.5.5,0,0,1,1-.13l.91,6.59a.51.51,0,0,1-.1.38.53.53,0,0,1-.35.19C312.42,222.68,306.59,223.2,302.64,223.2Z" fill="#231f20"/>
    <path d="M289.8,189.89s3.83,4.81,3.13,5.69-21,1.88-20.13-.23,6.31-6.6,6.31-6.6" fill="#fff"/>
    <path d="M280.79,197.11c-3.67,0-7-.23-8-.83a.87.87,0,0,1-.46-1.13c.91-2.2,6.22-6.6,6.45-6.79a.5.5,0,0,1,.7.07.5.5,0,0,1-.07.71c-1.45,1.19-5.31,4.61-6.11,6.29,1.56,1.14,17.35.59,19.21-.18,0-.63-1.38-2.87-3.11-5.05a.49.49,0,0,1,.07-.7.51.51,0,0,1,.71.08c1.86,2.34,3.91,5.33,3.13,6.31C292.78,196.57,286.36,197.11,280.79,197.11Z" fill="#231f20"/>
    <path d="M282.68,138.39s-22.91,14.22-22.62,21.91c.19,5.22,16.22,31.44,16.22,31.44l15.37-.85s-14-21.39-10.91-24.52S301,154.61,301,154.61l.31,61.49S317,215,317,214.11,320.39,141,320.39,141Z" fill="#231f20"/>
    <path d="M315.91,72.3a4.15,4.15,0,0,0-1.13-2.55,2,2,0,0,0-2.58-.15c.12-1.7-1.42-3-2.92-3.85a19.62,19.62,0,0,0-6-2.12,27,27,0,0,0-4.2-.35c-2.11,0-4.36.13-6,1.42a6.73,6.73,0,0,0-2,6.87,13.66,13.66,0,0,0,4,6.32,19,19,0,0,0,7.74,4.92,20.38,20.38,0,0,0,5.38.76c2.91.1,4.17-1.27,5.66-3.49A10.87,10.87,0,0,0,315.91,72.3Z" fill="#fff"/>
    <path d="M308.4,84.08h-.29a21.25,21.25,0,0,1-5.51-.78,19.56,19.56,0,0,1-8-5,14.12,14.12,0,0,1-4.14-6.56,7.24,7.24,0,0,1,2.2-7.39c1.82-1.4,4.23-1.56,6.35-1.52a26.31,26.31,0,0,1,4.27.36,19.93,19.93,0,0,1,6.19,2.17c1.08.59,2.77,1.77,3.12,3.47a2.66,2.66,0,0,1,2.48.6,4.64,4.64,0,0,1,1.29,2.85h0c.39,2.71-.32,5.29-2.22,8.12C312.78,82.46,311.45,84.08,308.4,84.08Zm-9.83-20.31a8.48,8.48,0,0,0-5.24,1.32c-2,1.53-2.35,4.3-1.85,6.36a13.25,13.25,0,0,0,3.87,6.09,18.49,18.49,0,0,0,7.54,4.79,19.7,19.7,0,0,0,5.25.74c2.52.09,3.66-.94,5.22-3.27a10.29,10.29,0,0,0,2.06-7.43h0a3.61,3.61,0,0,0-1-2.25,1.49,1.49,0,0,0-1.9-.16.47.47,0,0,1-.55.09.49.49,0,0,1-.29-.48c.11-1.61-1.62-2.81-2.66-3.38a18.83,18.83,0,0,0-5.88-2.07,25.65,25.65,0,0,0-4.12-.34Z" fill="#231f20"/>
    <path d="M308.88,99.45c-.35-7.55,1.18-22.86,1.18-22.86s-9.62.55-12.86-4.08c-4,3.11-4.77,11.85-4.05,14.46,1.44,5.17,8.14,4,8.14,4l-.86,9.44Z" fill="#fff"/>
    <path d="M300.43,100.94a.52.52,0,0,1-.35-.14.54.54,0,0,1-.15-.4l.81-8.84c-1.79.14-6.81.09-8.07-4.45-.77-2.77.08-11.74,4.22-15a.54.54,0,0,1,.39-.1.48.48,0,0,1,.33.21c3,4.34,12.32,3.86,12.42,3.86a.47.47,0,0,1,.39.15.49.49,0,0,1,.13.4c0,.15-1.51,15.36-1.17,22.78a.49.49,0,0,1-.44.52l-8.45,1Zm.86-10.44a.51.51,0,0,1,.34.13.53.53,0,0,1,.16.41l-.8,8.83,7.38-.87c-.24-6.78.87-19.11,1.13-21.89-2.09,0-9.24-.12-12.37-3.87-3.52,3.27-4.11,11.38-3.5,13.6,1.3,4.66,7.32,3.71,7.58,3.67Z" fill="#231f20"/>
    <path d="M301.29,91s2.77-.35,4.14-1.72c0,0-1.83,4.58-4.65,5.26Z" fill="#231f20"/>
    <path d="M300.78,95a.42.42,0,0,1-.3-.12.46.46,0,0,1-.15-.4l.51-3.55a.45.45,0,0,1,.39-.38s2.64-.35,3.88-1.59a.47.47,0,0,1,.58-.06.46.46,0,0,1,.17.55c-.08.2-1.95,4.8-5,5.53Zm.92-3.6-.36,2.45a8.21,8.21,0,0,0,2.93-3.24A10.81,10.81,0,0,1,301.7,91.4Z" fill="#231f20"/>
    <path d="M295.3,94.57l-21.95,12L278.66,122s27.61-14.61,27.79-18.56S295.3,94.57,295.3,94.57Z" fill="#522020"/>
    <path d="M282.11,138.81s1.05-15.71,3-27.68c.84-5.09.52-8.65,2.21-11.4,5.65-9.24,27.67-6.48,30.87-.07S320.39,141,320.39,141Z" fill="#522020"/>
    <path d="M308.49,82a3.3,3.3,0,0,1,2.34-2.51,1.93,1.93,0,0,1,1.58.18,2.14,2.14,0,0,1,.73,1.95,4.5,4.5,0,0,1-4.55,4.17" fill="#fff"/>
    <path d="M308.65,86.24h-.07a.5.5,0,0,1-.49-.51.49.49,0,0,1,.51-.49,3.84,3.84,0,0,0,2.75-1,4,4,0,0,0,1.29-2.66,1.76,1.76,0,0,0-.51-1.5,1.43,1.43,0,0,0-1.17-.1,2.81,2.81,0,0,0-2,2.12.51.51,0,0,1-.58.4.51.51,0,0,1-.4-.59,3.8,3.8,0,0,1,2.7-2.9,2.38,2.38,0,0,1,2,.25,2.55,2.55,0,0,1,.93,2.39,5,5,0,0,1-5,4.64Z" fill="#231f20"/>
    <ellipse cx="296.9" cy="77.43" rx="0.86" ry="0.46" transform="translate(134.53 337.79) rotate(-72.67)" fill="#231f20"/>
    <path d="M294.85,87.35a7,7,0,0,0,1.94.85,2.69,2.69,0,0,0,2.69-.47,3.49,3.49,0,0,0,.57-1.08" fill="#fff"/>
    <path d="M297.86,88.85a4.72,4.72,0,0,1-1.2-.16,7.73,7.73,0,0,1-2.08-.92.5.5,0,0,1-.15-.69.49.49,0,0,1,.69-.15,6.58,6.58,0,0,0,1.8.79c.36.09,1.58.35,2.19-.32a3.12,3.12,0,0,0,.47-.93.5.5,0,0,1,.64-.29.5.5,0,0,1,.3.64,3.72,3.72,0,0,1-.67,1.25A2.63,2.63,0,0,1,297.86,88.85Z" fill="#231f20"/>
    <path d="M294.8,78.32s-3.86,4.4-2.92,5.35,3.19.47,3.19.47" fill="#fff"/>
    <path d="M293.84,84.77a3.26,3.26,0,0,1-2.31-.75c-1.11-1.11,1.34-4.26,2.89-6a.51.51,0,0,1,.71,0,.5.5,0,0,1,0,.71c-1.75,2-3.14,4.23-2.92,4.68.61.6,2.17.44,2.72.33a.5.5,0,1,1,.2,1A6.21,6.21,0,0,1,293.84,84.77Z" fill="#231f20"/>
    <path d="M278.66,122.47a.49.49,0,0,1-.44-.26.51.51,0,0,1,.2-.68c.15-.08,15.34-8.19,20.87-11.19a.49.49,0,0,1,.67.2.49.49,0,0,1-.2.68c-5.53,3-20.71,11.11-20.87,11.19A.46.46,0,0,1,278.66,122.47Z" fill="#231f20"/>
    <line x1="183.24" y1="166.22" x2="144.57" y2="197.94" fill="#fff"/>
    <path d="M144.57,198.4a.46.46,0,0,1-.35-.17.46.46,0,0,1,.06-.65L183,165.86a.47.47,0,0,1,.65.06.46.46,0,0,1-.07.65l-38.66,31.72A.48.48,0,0,1,144.57,198.4Z" fill="#d1d3d4"/>
    <line x1="144.57" y1="166.22" x2="183.24" y2="197.94" fill="#fff"/>
    <path d="M183.24,198.4a.46.46,0,0,1-.29-.11l-38.67-31.72a.46.46,0,0,1-.06-.65.47.47,0,0,1,.65-.06l38.66,31.72a.46.46,0,0,1,.07.65A.48.48,0,0,1,183.24,198.4Z" fill="#d1d3d4"/>
    <path d="M301,155.1a.49.49,0,0,1-.24-.93c.06,0,5.27-2.81,6.59-5.32a.49.49,0,0,1,.67-.2.49.49,0,0,1,.21.67c-1.46,2.78-6.78,5.61-7,5.73A.64.64,0,0,1,301,155.1Z" fill="#fff"/>
  </g>
</svg>