<?xml version="1.0" encoding="utf-8"?>
<svg viewBox="0 0 322 229" xmlns="http://www.w3.org/2000/svg">
  <path d="M 192.668 223.789 C 190.153 223.818 187.647 223.481 185.228 222.789 C 178.848 220.869 173.138 215.519 169.578 208.129 C 166.388 201.509 165.108 194.219 163.878 187.129 C 163.824 186.862 164.008 186.604 164.278 186.569 C 164.541 186.521 164.793 186.696 164.838 186.959 C 166.058 193.959 167.318 201.179 170.448 207.679 C 173.898 214.829 179.388 219.979 185.508 221.829 C 189.958 223.159 194.808 222.829 199.388 222.289 C 209.198 221.129 215.178 218.089 217.688 213.009 C 217.778 212.809 217.868 212.629 217.928 212.459 C 216.358 212.899 214.808 213.459 213.288 214.029 C 212.028 214.489 210.728 214.959 209.428 215.369 C 203.101 217.355 196.39 217.794 189.858 216.649 C 186.708 216.089 184.788 214.569 184.718 212.589 C 184.648 210.609 186.358 209.029 189.408 208.149 C 197.765 205.72 206.618 205.558 215.058 207.679 C 217.458 208.279 218.778 209.279 219.058 210.729 C 219.088 210.888 219.108 211.048 219.118 211.209 C 219.498 211.119 219.878 211.039 220.268 210.969 C 224.328 210.249 228.568 210.659 232.668 211.049 C 238.488 211.609 243.988 212.139 248.948 209.699 C 249.191 209.585 249.481 209.687 249.598 209.929 C 249.72 210.169 249.621 210.463 249.378 210.579 C 244.168 213.129 238.278 212.579 232.578 212.019 C 228.578 211.629 224.368 211.229 220.438 211.929 C 219.958 212.009 219.438 212.119 219.008 212.229 C 218.891 212.672 218.726 213.101 218.518 213.509 C 215.858 218.909 209.618 222.119 199.468 223.329 C 197.213 223.617 194.942 223.771 192.668 223.789 Z M 203.098 207.149 C 198.557 207.151 194.039 207.794 189.678 209.059 C 188.458 209.409 185.618 210.469 185.678 212.539 C 185.738 214.609 189.008 215.539 190.008 215.669 C 196.381 216.807 202.934 216.402 209.118 214.489 C 210.398 214.089 211.688 213.619 212.928 213.169 C 214.638 212.539 216.378 211.899 218.168 211.429 C 218.189 211.26 218.189 211.089 218.168 210.919 C 217.938 209.859 216.848 209.109 214.838 208.599 C 211 207.634 207.056 207.147 203.098 207.149 Z" fill="#e6e7e8"/>
  <rect x="240.588" y="70.749" width="74.61" height="148.72" rx="4.76" fill="#fff"/>
  <path d="M 310.438 219.949 L 245.348 219.949 C 242.456 219.944 240.114 217.601 240.108 214.709 L 240.108 75.499 C 240.114 72.608 242.456 70.265 245.348 70.259 L 310.438 70.259 C 313.334 70.259 315.683 72.604 315.688 75.499 L 315.688 214.709 C 315.683 217.605 313.334 219.949 310.438 219.949 Z M 245.348 71.229 C 242.99 71.229 241.078 73.141 241.078 75.499 L 241.078 214.709 C 241.078 217.067 242.99 218.979 245.348 218.979 L 310.438 218.979 C 312.796 218.979 314.708 217.067 314.708 214.709 L 314.708 75.499 C 314.708 73.141 312.796 71.229 310.438 71.229 Z" fill="#231f20"/>
  <rect x="244.508" y="84.199" width="66.77" height="114.45" fill="#522020"/>
  <rect x="268.618" y="204.219" width="18.55" height="10.71" rx="2.92" fill="#fff"/>
  <path d="M 284.238 215.409 L 271.548 215.409 C 269.665 215.409 268.138 213.883 268.138 211.999 L 268.138 207.149 C 268.138 205.266 269.665 203.739 271.548 203.739 L 284.238 203.739 C 286.125 203.734 287.658 205.262 287.658 207.149 L 287.658 211.999 C 287.653 213.884 286.123 215.409 284.238 215.409 Z M 271.548 204.709 C 270.201 204.709 269.108 205.802 269.108 207.149 L 269.108 211.999 C 269.108 213.347 270.201 214.439 271.548 214.439 L 284.238 214.439 C 285.586 214.439 286.678 213.347 286.678 211.999 L 286.678 207.149 C 286.678 205.802 285.586 204.709 284.238 204.709 Z" fill="#e6e7e8"/>
  <path d="M 284.638 77.649 L 265.638 77.649 C 265.369 77.655 265.148 77.438 265.148 77.169 C 265.148 76.899 265.368 76.679 265.638 76.679 L 284.638 76.679 C 284.907 76.679 285.124 76.9 285.118 77.169 C 285.124 77.437 284.906 77.655 284.638 77.649 Z" fill="#e6e7e8"/>
  <path d="M 289.848 77.649 L 287.298 77.649 C 287.033 77.649 286.818 77.434 286.818 77.169 C 286.818 76.902 287.031 76.685 287.298 76.679 L 289.848 76.679 C 290.119 76.679 290.338 76.899 290.338 77.169 C 290.338 77.438 290.117 77.655 289.848 77.649 Z" fill="#e6e7e8"/>
  <path d="M 302.798 156.109 L 252.948 156.109 C 250.883 156.109 249.208 154.435 249.208 152.369 L 249.208 127.749 C 249.203 125.68 250.879 123.999 252.948 123.999 L 302.758 123.999 C 304.829 123.999 306.508 125.678 306.508 127.749 L 306.508 152.369 C 306.503 154.421 304.85 156.087 302.798 156.109 Z M 252.948 124.979 C 251.418 124.979 250.178 126.219 250.178 127.749 L 250.178 152.369 C 250.178 153.899 251.418 155.139 252.948 155.139 L 302.758 155.139 C 304.288 155.139 305.528 153.899 305.528 152.369 L 305.528 127.749 C 305.528 126.219 304.288 124.979 302.758 124.979 Z" fill="#fff"/>
  <path d="M 249.728 153.279 C 249.351 153.272 249.123 152.859 249.318 152.536 C 249.347 152.488 249.384 152.445 249.428 152.409 L 274.108 132.879 C 274.306 132.728 274.586 132.75 274.758 132.929 L 289.488 148.209 C 289.678 148.4 289.678 148.708 289.488 148.899 C 289.301 149.087 288.996 149.087 288.808 148.899 L 274.388 133.899 L 250.048 153.159 C 249.96 153.238 249.846 153.281 249.728 153.279 Z" fill="#fff"/>
  <path d="M 306.058 148.379 C 305.919 148.377 305.788 148.315 305.698 148.209 L 297.518 138.939 L 288.168 146.749 C 287.883 146.988 287.447 146.829 287.383 146.463 C 287.353 146.293 287.416 146.12 287.548 146.009 L 297.258 137.889 C 297.445 137.708 297.742 137.708 297.928 137.889 L 306.418 147.519 C 306.606 147.707 306.606 148.012 306.418 148.199 C 306.334 148.314 306.2 148.381 306.058 148.379 Z" fill="#fff"/>
  <path d="M 289.138 137.049 C 286.221 137.057 284.389 133.903 285.841 131.373 C 287.293 128.842 290.94 128.833 292.405 131.356 C 292.743 131.937 292.92 132.597 292.918 133.269 C 292.913 135.355 291.224 137.044 289.138 137.049 Z M 289.138 130.449 C 286.967 130.442 285.602 132.787 286.681 134.671 C 287.76 136.554 290.473 136.564 291.565 134.688 C 291.816 134.257 291.948 133.768 291.948 133.269 C 291.948 131.716 290.692 130.455 289.138 130.449 Z" fill="#fff"/>
  <rect x="250.718" y="180.019" width="9.53" height="11.04" rx="3.42" fill="#fff"/>
  <rect x="265.658" y="180.019" width="9.53" height="11.04" rx="3.42" fill="#fff"/>
  <rect x="280.598" y="180.019" width="9.53" height="11.04" rx="3.42" fill="#fff"/>
  <rect x="295.538" y="180.019" width="9.53" height="11.04" rx="3.42" fill="#fff"/>
  <path d="M 305.348 93.739 L 250.438 93.739 C 250.169 93.745 249.948 93.528 249.948 93.259 C 249.948 92.989 250.168 92.769 250.438 92.769 L 305.348 92.769 C 305.619 92.769 305.838 92.989 305.838 93.259 C 305.838 93.528 305.617 93.745 305.348 93.739 Z" fill="#fff"/>
  <path d="M 305.348 101.479 L 250.438 101.479 C 250.053 101.479 249.813 101.063 250.005 100.729 C 250.094 100.575 250.26 100.479 250.438 100.479 L 305.348 100.479 C 305.733 100.479 305.974 100.896 305.781 101.229 C 305.692 101.384 305.527 101.479 305.348 101.479 Z" fill="#fff"/>
  <path d="M 305.348 109.219 L 250.438 109.219 C 250.168 109.219 249.948 109 249.948 108.729 C 249.948 108.46 250.169 108.244 250.438 108.249 L 305.348 108.249 C 305.617 108.244 305.838 108.46 305.838 108.729 C 305.838 109 305.619 109.219 305.348 109.219 Z" fill="#fff"/>
  <path d="M 305.348 116.959 L 250.438 116.959 C 250.053 116.959 249.813 116.543 250.005 116.209 C 250.094 116.055 250.26 115.959 250.438 115.959 L 305.348 115.959 C 305.733 115.959 305.974 116.376 305.781 116.709 C 305.692 116.864 305.527 116.959 305.348 116.959 Z" fill="#fff"/>
  <path d="M 305.348 164.899 L 250.438 164.899 C 250.053 164.899 249.813 164.483 250.005 164.149 C 250.094 163.995 250.26 163.899 250.438 163.899 L 305.348 163.899 C 305.733 163.899 305.974 164.316 305.781 164.649 C 305.692 164.804 305.527 164.899 305.348 164.899 Z" fill="#fff"/>
  <path d="M 305.348 172.649 L 250.438 172.649 C 250.169 172.655 249.948 172.438 249.948 172.169 C 249.948 171.899 250.168 171.679 250.438 171.679 L 305.348 171.679 C 305.619 171.679 305.838 171.899 305.838 172.169 C 305.838 172.438 305.617 172.655 305.348 172.649 Z" fill="#fff"/>
  <path d="M 295.118 18.499 C 295.118 18.499 296.348 13.259 295.208 10.279 C 294.52 8.555 292.801 7.47 290.948 7.589 C 290.948 7.589 282.668 5.749 280.278 3.589 L 281.358 7.409 C 279.917 7.308 278.511 6.924 277.218 6.279 C 276.878 7.609 277.288 9.019 278.288 9.959 C 277.081 10.538 275.676 10.538 274.468 9.959 C 274.468 9.959 276.738 15.529 282.018 14.959 C 285.458 14.449 291.548 19.649 295.118 18.499 Z" fill="#fff"/>
  <path d="M 293.948 19.159 C 292.058 19.159 289.848 18.159 287.688 17.159 C 285.528 16.159 283.498 15.159 282.048 15.369 C 276.458 16.019 274.048 10.179 273.988 10.119 C 273.854 9.767 274.152 9.401 274.525 9.462 C 274.582 9.471 274.638 9.49 274.688 9.519 C 275.52 9.954 276.489 10.047 277.388 9.779 C 276.65 8.735 276.405 7.419 276.718 6.179 C 276.751 6.041 276.847 5.926 276.978 5.869 C 277.109 5.814 277.257 5.814 277.388 5.869 C 278.431 6.349 279.535 6.686 280.668 6.869 L 279.778 3.729 C 279.721 3.52 279.806 3.298 279.988 3.179 C 280.173 3.066 280.411 3.091 280.568 3.239 C 282.728 5.239 290.158 6.929 290.958 7.119 C 293.012 6.985 294.915 8.2 295.658 10.119 C 296.848 13.199 295.658 18.399 295.588 18.619 C 295.556 18.784 295.438 18.918 295.278 18.969 C 294.848 19.104 294.399 19.168 293.948 19.159 Z M 295.118 18.499 L 295.118 18.499 Z M 282.388 14.339 C 284.028 14.339 286.008 15.269 288.098 16.239 C 290.488 17.359 292.958 18.509 294.708 18.109 C 294.938 17.009 295.708 12.879 294.758 10.459 C 294.144 8.918 292.603 7.951 290.948 8.069 L 290.798 8.069 C 290.498 7.999 284.268 6.609 281.068 4.759 L 281.778 7.269 C 281.819 7.417 281.789 7.576 281.698 7.699 C 281.605 7.82 281.461 7.89 281.308 7.889 C 280.01 7.812 278.736 7.5 277.548 6.969 C 277.431 7.951 277.805 8.927 278.548 9.579 C 278.67 9.687 278.733 9.847 278.718 10.009 C 278.702 10.175 278.599 10.319 278.448 10.389 C 277.509 10.812 276.466 10.951 275.448 10.789 C 276.368 12.289 278.448 14.789 281.938 14.379 C 282.087 14.356 282.237 14.342 282.388 14.339 Z" fill="#231f20"/>
  <path d="M 302.108 62.349 C 302.108 62.349 309.328 46.559 308.448 36.209 C 307.568 25.859 300.788 25.209 298.448 25.079 C 296.108 24.949 283.638 23.269 279.088 28.839 C 274.538 34.409 275.718 61.239 275.718 61.239 Z" fill="#522020"/>
  <path d="M 275.188 55.929 C 269.878 58.358 264.806 61.278 260.038 64.649 C 255.818 67.509 253.428 97.699 253.428 97.699 C 253.428 97.699 254.298 102.549 259.908 101.789 L 274.678 68.159 C 274.678 68.159 279.948 55.799 275.188 55.929 Z" fill="#231f20"/>
  <path d="M 258.758 102.329 C 255.972 102.4 253.53 100.475 252.948 97.749 C 252.943 97.709 252.943 97.669 252.948 97.629 C 253.198 94.509 255.488 67.129 259.768 64.219 C 264.571 60.842 269.676 57.916 275.018 55.479 C 275.074 55.464 275.132 55.464 275.188 55.479 C 275.949 55.422 276.684 55.772 277.118 56.399 C 278.988 59.149 275.538 67.399 275.118 68.399 L 260.348 102.039 C 260.279 102.193 260.135 102.299 259.968 102.319 C 259.566 102.35 259.161 102.353 258.758 102.329 Z M 253.948 97.649 C 254.058 98.169 255.018 101.799 259.608 101.319 L 274.268 67.949 C 275.268 65.549 277.668 58.869 276.338 56.949 C 276.114 56.621 275.736 56.432 275.338 56.449 C 270.094 58.875 265.075 61.76 260.338 65.069 C 257.018 67.259 254.588 89.249 253.948 97.649 Z" fill="#231f20"/>
  <path d="M 302.698 59.029 C 302.698 59.029 281.488 59.639 276.498 58.909 C 276.498 58.909 276.218 58.969 272.558 65.709 C 268.898 72.449 274.158 103.259 274.158 103.259 C 274.158 103.259 278.978 108.359 282.788 107.629 L 287.298 72.499 C 287.298 72.499 294.988 72.729 299.298 69.669 C 302.258 67.519 302.128 62.929 302.698 59.029 Z" fill="#231f20"/>
  <path d="M 282.008 108.189 C 278.188 108.189 274.008 103.789 273.798 103.589 C 273.733 103.521 273.691 103.433 273.678 103.339 C 273.458 102.079 268.428 72.339 272.128 65.479 C 275.828 58.619 276.128 58.479 276.398 58.479 L 276.568 58.479 C 281.458 59.209 302.478 58.609 302.688 58.599 C 302.996 58.58 303.238 58.857 303.178 59.159 C 303.078 59.879 302.988 60.629 302.908 61.379 C 302.538 64.759 302.158 68.249 299.538 70.129 C 295.738 72.849 289.458 73.049 287.728 73.049 L 283.268 107.649 C 283.242 107.859 283.085 108.028 282.878 108.069 C 282.592 108.135 282.301 108.175 282.008 108.189 Z M 274.608 103.029 C 275.278 103.709 279.188 107.489 282.348 107.199 L 286.818 72.439 C 286.845 72.187 287.066 72.002 287.318 72.019 C 287.398 72.019 294.888 72.199 298.978 69.279 C 301.238 67.649 301.598 64.379 301.978 61.209 C 302.038 60.649 302.098 60.079 302.168 59.529 C 298.748 59.619 281.698 60.039 276.738 59.419 C 276.448 59.839 275.558 61.249 273.008 65.939 C 269.568 72.229 274.218 100.699 274.608 103.029 Z" fill="#231f20"/>
  <path d="M 279.078 28.839 C 279.078 28.839 275.718 35.309 273.738 38.629 C 271.844 41.478 269.742 44.182 267.448 46.719 C 267.448 46.719 252.198 52.139 252.108 52.429 C 252.018 52.719 253.548 57.849 253.548 57.849 C 253.548 57.849 269.548 56.699 272.188 55.449 C 274.828 54.199 280.188 48.049 280.188 48.049 Z" fill="#522020"/>
  <path d="M 285.288 25.369 L 286.198 30.889 C 287.375 32.584 289.628 33.141 291.458 32.189 C 294.948 30.649 294.948 28.009 294.948 28.009 L 293.088 17.809 C 293.088 17.809 289.868 16.559 288.198 10.279 C 288.198 10.279 280.198 10.889 280.748 13.879 C 280.748 13.879 280.648 19.509 281.498 22.249 C 282.119 23.888 283.561 25.075 285.288 25.369 Z" fill="#fff"/>
  <path d="M 289.498 33.129 C 288.016 33.082 286.642 32.342 285.788 31.129 C 285.756 31.073 285.733 31.012 285.718 30.949 L 284.858 25.739 C 283.072 25.382 281.609 24.103 281.018 22.379 C 280.148 19.589 280.238 14.079 280.238 13.849 C 280.161 13.294 280.321 12.731 280.678 12.299 C 282.248 10.299 287.538 9.819 288.138 9.779 C 288.373 9.761 288.587 9.912 288.648 10.139 C 290.218 16.049 293.218 17.329 293.248 17.339 C 293.404 17.399 293.518 17.535 293.548 17.699 L 295.408 27.899 C 295.408 28.109 295.408 30.989 291.658 32.619 C 290.982 32.938 290.246 33.111 289.498 33.129 Z M 286.658 30.699 C 287.723 32.143 289.684 32.59 291.268 31.749 C 294.368 30.389 294.448 28.099 294.448 27.999 L 292.638 18.139 C 291.818 17.709 289.298 15.979 287.818 10.799 C 286.078 10.979 282.468 11.599 281.438 12.919 C 281.235 13.16 281.15 13.479 281.208 13.789 C 281.208 13.939 281.128 19.469 281.948 22.109 C 282.485 23.576 283.775 24.637 285.318 24.879 L 285.518 24.939 C 285.649 25.013 285.741 25.141 285.768 25.289 Z" fill="#231f20"/>
  <path d="M 290.948 18.009 C 290.987 17.493 291.191 17.002 291.528 16.609 C 291.859 16.256 292.248 15.962 292.678 15.739 C 292.902 15.597 293.155 15.505 293.418 15.469 C 293.606 15.468 293.793 15.501 293.968 15.569 C 294.378 15.697 294.731 15.962 294.968 16.319 C 295.124 16.629 295.203 16.972 295.198 17.319 C 295.226 17.704 295.199 18.092 295.118 18.469 C 294.943 19.227 294.471 19.883 293.808 20.289 C 293.144 20.687 292.352 20.812 291.598 20.639" fill="#fff"/>
  <path d="M 292.278 21.239 C 292.009 21.236 291.74 21.203 291.478 21.139 C 291.216 21.075 291.055 20.811 291.118 20.549 C 291.182 20.288 291.448 20.13 291.708 20.199 C 292.339 20.342 293.001 20.238 293.558 19.909 C 294.106 19.564 294.497 19.019 294.648 18.389 C 294.714 18.06 294.738 17.724 294.718 17.389 C 294.727 17.113 294.669 16.838 294.548 16.589 C 294.364 16.321 294.091 16.127 293.778 16.039 C 293.661 16.002 293.54 15.979 293.418 15.969 C 293.228 16.004 293.047 16.079 292.888 16.189 C 292.514 16.38 292.176 16.634 291.888 16.939 C 291.615 17.251 291.453 17.645 291.428 18.059 C 291.407 18.328 291.177 18.531 290.908 18.519 C 290.639 18.503 290.435 18.268 290.458 17.999 C 290.502 17.377 290.743 16.784 291.148 16.309 C 291.512 15.902 291.945 15.563 292.428 15.309 C 292.731 15.121 293.073 15.005 293.428 14.969 C 293.681 14.969 293.931 15.013 294.168 15.099 C 294.707 15.261 295.167 15.617 295.458 16.099 C 295.658 16.485 295.761 16.914 295.758 17.349 C 295.783 17.778 295.753 18.208 295.668 18.629 C 295.303 20.168 293.93 21.256 292.348 21.259 Z" fill="#231f20"/>
  <path d="M 285.888 16.529 C 285.888 16.529 284.388 19.649 284.888 20.079 C 285.388 20.509 286.638 19.999 286.638 19.999" fill="#fff"/>
  <path d="M 285.528 20.729 C 285.198 20.746 284.873 20.647 284.608 20.449 C 284.398 20.279 283.788 19.779 285.458 16.319 C 285.575 16.083 285.858 15.981 286.098 16.089 C 286.345 16.202 286.449 16.496 286.328 16.739 C 285.842 17.682 285.505 18.694 285.328 19.739 C 285.732 19.788 286.14 19.722 286.508 19.549 C 286.757 19.451 287.039 19.565 287.148 19.809 C 287.251 20.061 287.13 20.348 286.878 20.449 C 286.449 20.623 285.991 20.718 285.528 20.729 Z M 285.298 19.799 Z" fill="#231f20"/>
  <ellipse cx="323.34" cy="43.1" rx="0.48" ry="0.67" transform="matrix(0.994881, -0.101056, 0.101056, 0.994881, -37.751713, 5.529229)" fill="#231f20"/>
  <ellipse cx="319.3" cy="43.81" rx="0.48" ry="0.67" transform="matrix(0.995562, -0.094108, 0.094108, 0.995562, -37.761791, 2.879219)" fill="#231f20"/>
  <path d="M 286.328 23.179 C 285.412 23.16 284.507 22.973 283.658 22.629 C 283.41 22.524 283.297 22.235 283.408 21.989 C 283.521 21.749 283.802 21.64 284.048 21.739 C 284.048 21.739 286.318 22.739 287.848 21.869 C 288.66 21.342 289.179 20.465 289.248 19.499 C 289.31 19.114 289.765 18.94 290.067 19.186 C 290.208 19.3 290.277 19.481 290.248 19.659 C 290.136 20.923 289.431 22.058 288.348 22.719 C 287.727 23.047 287.03 23.206 286.328 23.179 Z" fill="#231f20"/>
  <path d="M 285.288 25.369 C 285.288 25.369 288.848 25.589 290.688 24.099 C 290.688 24.099 289.208 29.099 285.918 29.099 Z" fill="#231f20"/>
  <path d="M 285.948 29.649 C 285.71 29.651 285.509 29.475 285.478 29.239 L 284.848 25.459 C 284.82 25.311 284.865 25.159 284.968 25.049 C 285.067 24.939 285.21 24.88 285.358 24.889 C 285.358 24.889 288.758 25.079 290.418 23.729 C 290.718 23.5 291.153 23.681 291.202 24.055 C 291.21 24.12 291.206 24.186 291.188 24.249 C 291.128 24.459 289.578 29.589 285.958 29.649 Z M 285.948 25.879 L 286.408 28.639 C 288.108 28.349 289.238 26.489 289.828 25.209 C 288.556 25.669 287.211 25.892 285.858 25.869 Z" fill="#231f20"/>
  <path d="M 305.068 27.649 C 307.918 28.149 319.448 54.809 315.498 57.849 C 309.338 62.599 287.898 57.849 287.898 57.849 L 289.648 49.579 C 289.648 49.579 303.428 49.969 303.648 47.139 C 303.868 44.309 295.648 31.209 296.708 29.249 C 297.768 27.289 305.068 27.649 305.068 27.649 Z" fill="#522020"/>
  <path d="M 291.128 52.259 C 288.84 52.405 286.542 52.294 284.278 51.929 C 282.602 51.522 280.883 51.324 279.158 51.339 C 276.886 51.447 274.651 51.959 272.558 52.849 C 272.469 52.877 272.39 52.929 272.328 52.999 C 272.128 53.279 272.608 53.559 272.958 53.569 C 273.867 53.587 274.773 53.472 275.648 53.229 C 273.481 54.03 271.433 55.12 269.558 56.469 C 269.338 56.619 269.108 56.859 269.208 57.099 C 269.308 57.339 269.748 57.299 270.028 57.169 L 274.948 54.919 C 273.672 55.431 272.489 56.151 271.448 57.049 C 271.308 57.179 271.138 57.349 271.188 57.539 C 271.238 57.729 271.748 57.809 272.058 57.659 C 273.557 56.91 274.989 56.033 276.338 55.039 L 273.338 57.379 C 273.338 57.619 273.568 57.829 273.818 57.839 C 274.069 57.823 274.311 57.741 274.518 57.599 L 277.908 55.599 L 275.798 57.079 C 275.458 57.309 275.078 57.689 275.248 58.079 C 275.418 58.469 276.088 58.379 276.528 58.189 C 278.267 57.435 280.085 56.878 281.948 56.529 C 282.597 56.318 283.268 56.18 283.948 56.119 C 284.996 56.258 286.029 56.485 287.038 56.799 C 288.578 57.139 290.108 57.489 291.638 57.799" fill="#fff"/>
  <path d="M 275.738 58.829 C 275.592 58.832 275.446 58.808 275.308 58.759 C 275.08 58.676 274.895 58.502 274.798 58.279 C 274.754 58.182 274.73 58.076 274.728 57.969 L 274.728 57.969 C 274.453 58.164 274.125 58.271 273.788 58.279 C 273.513 58.265 273.257 58.139 273.078 57.929 C 273.022 57.862 272.975 57.788 272.938 57.709 C 272.728 57.829 272.508 57.939 272.288 58.049 C 271.951 58.235 271.549 58.264 271.188 58.129 C 270.982 58.032 270.833 57.843 270.788 57.619 C 270.768 57.52 270.768 57.418 270.788 57.319 L 270.248 57.569 C 269.94 57.731 269.582 57.767 269.248 57.669 C 269.058 57.601 268.906 57.456 268.828 57.269 C 268.738 57.079 268.628 56.589 269.318 56.099 C 270.422 55.304 271.585 54.595 272.798 53.979 C 272.439 53.939 272.119 53.736 271.928 53.429 C 271.817 53.203 271.84 52.933 271.988 52.729 C 272.094 52.593 272.236 52.489 272.398 52.429 C 274.542 51.517 276.831 50.995 279.158 50.889 C 280.702 50.853 282.245 51.014 283.748 51.369 L 284.378 51.479 C 286.612 51.839 288.88 51.95 291.138 51.809 L 291.138 51.809 C 291.379 51.809 291.577 51.999 291.588 52.239 C 291.589 52.482 291.4 52.683 291.158 52.699 C 288.836 52.835 286.506 52.721 284.208 52.359 L 283.568 52.239 C 282.133 51.903 280.662 51.745 279.188 51.769 C 277.085 51.875 275.014 52.328 273.058 53.109 C 273.896 53.127 274.732 53.019 275.538 52.789 C 275.862 52.681 276.18 52.964 276.112 53.298 C 276.08 53.453 275.968 53.579 275.818 53.629 C 273.736 54.397 271.763 55.432 269.948 56.709 L 273.618 55.029 C 273.998 54.839 274.378 54.659 274.768 54.509 C 275.08 54.375 275.421 54.628 275.381 54.965 C 275.363 55.122 275.263 55.257 275.118 55.319 L 274.008 55.829 C 273.262 56.218 272.558 56.684 271.908 57.219 C 273.371 56.487 274.767 55.627 276.078 54.649 C 276.274 54.501 276.553 54.542 276.698 54.739 C 276.848 54.932 276.813 55.211 276.618 55.359 L 274.198 57.199 L 274.258 57.199 L 277.648 55.199 C 277.964 55.057 278.315 55.31 278.281 55.654 C 278.269 55.769 278.215 55.874 278.128 55.949 L 276.008 57.429 C 275.668 57.669 275.598 57.849 275.608 57.869 C 275.848 57.916 276.097 57.874 276.308 57.749 C 278.083 56.979 279.937 56.408 281.838 56.049 L 282.478 55.879 C 282.953 55.726 283.449 55.649 283.948 55.649 C 284.713 55.709 285.468 55.857 286.198 56.089 C 286.518 56.179 286.828 56.269 287.128 56.329 L 291.728 57.389 C 292.059 57.466 292.183 57.873 291.951 58.121 C 291.843 58.236 291.682 58.285 291.528 58.249 C 289.998 57.899 288.468 57.539 286.928 57.249 C 286.618 57.179 286.298 57.089 285.928 56.999 C 285.278 56.791 284.608 56.653 283.928 56.589 C 283.512 56.596 283.1 56.67 282.708 56.809 C 282.478 56.869 282.248 56.939 282.008 56.979 C 280.172 57.338 278.381 57.898 276.668 58.649 C 276.373 58.77 276.057 58.831 275.738 58.829 Z" fill="#231f20"/>
  <path d="M 280.558 31.179 C 279.798 31.949 277.888 44.069 277.188 49.789" fill="#fff"/>
  <path d="M 277.188 50.239 L 277.128 50.239 C 276.888 50.208 276.719 49.989 276.748 49.749 C 277.178 46.189 279.238 31.899 280.248 30.869 C 280.522 30.657 280.923 30.82 280.97 31.163 C 280.986 31.278 280.957 31.395 280.888 31.489 C 280.238 32.379 278.398 43.549 277.628 49.859 C 277.594 50.076 277.408 50.237 277.188 50.239 Z" fill="#231f20"/>
  <polygon points="251.798 61.199 252.138 63.469 283.518 68.049 282.988 65.709 251.798 61.199" fill="#fff"/>
  <path d="M 283.518 68.539 L 283.448 68.539 L 252.068 63.949 C 251.857 63.917 251.691 63.751 251.658 63.539 L 251.318 61.269 C 251.289 61.116 251.338 60.959 251.448 60.849 C 251.561 60.744 251.714 60.692 251.868 60.709 L 283.058 65.229 C 283.255 65.258 283.415 65.405 283.458 65.599 L 283.948 67.949 C 283.99 68.102 283.948 68.265 283.838 68.379 C 283.756 68.472 283.641 68.529 283.518 68.539 Z M 252.518 63.039 L 282.848 67.469 L 282.548 66.139 L 252.328 61.769 Z" fill="#231f20"/>
  <path d="M 251.798 61.199 C 251.798 61.199 258.938 55.069 259.178 55.129 C 259.418 55.189 291.508 59.029 291.508 59.029 L 282.948 65.709 Z" fill="#fff"/>
  <path d="M 282.948 66.199 L 282.948 66.199 L 251.728 61.649 C 251.539 61.619 251.383 61.483 251.328 61.299 C 251.273 61.118 251.332 60.92 251.478 60.799 C 258.818 54.499 258.978 54.549 259.288 54.619 C 259.768 54.699 280.618 57.199 291.568 58.509 C 291.765 58.535 291.927 58.677 291.978 58.869 C 292.037 59.058 291.969 59.263 291.808 59.379 L 283.288 66.059 C 283.198 66.149 283.076 66.2 282.948 66.199 Z M 252.948 60.869 L 282.868 65.199 L 290.308 59.369 C 280.648 58.209 261.448 55.909 259.308 55.629 C 258.588 56.079 255.338 58.809 252.948 60.869 Z" fill="#231f20"/>
  <polygon points="283.518 68.049 291.708 61.199 291.508 59.029 282.988 65.709 283.518 68.049" fill="#fff"/>
  <path d="M 283.518 68.539 C 283.469 68.549 283.418 68.549 283.368 68.539 C 283.205 68.491 283.082 68.356 283.048 68.189 L 282.518 65.849 C 282.471 65.667 282.538 65.474 282.688 65.359 L 291.208 58.649 C 291.505 58.417 291.943 58.593 291.995 58.966 C 291.997 58.974 291.997 58.982 291.998 58.989 L 292.188 61.159 C 292.205 61.319 292.142 61.476 292.018 61.579 L 283.828 68.439 C 283.739 68.506 283.63 68.541 283.518 68.539 Z M 283.518 65.899 L 283.808 67.169 L 291.188 60.989 L 291.098 59.989 Z" fill="#231f20"/>
  <polygon points="251.798 61.199 245.768 40.989 278.848 46.629 282.988 65.709 251.798 61.199" fill="#fff"/>
  <path d="M 282.948 66.199 L 282.948 66.199 L 251.728 61.649 C 251.537 61.624 251.379 61.486 251.328 61.299 L 245.328 41.099 C 245.228 40.753 245.523 40.421 245.878 40.479 L 278.948 46.149 C 279.142 46.181 279.296 46.328 279.338 46.519 L 283.458 65.649 C 283.495 65.804 283.45 65.966 283.338 66.079 C 283.233 66.175 283.09 66.219 282.948 66.199 Z M 252.128 60.759 L 282.328 65.129 L 278.438 47.049 L 246.438 41.599 Z" fill="#231f20"/>
  <path d="M 298.328 60.729 L 298.248 60.729 L 291.558 59.579 C 291.329 59.537 291.158 59.342 291.148 59.109 L 290.938 51.109 C 290.927 50.853 291.122 50.635 291.378 50.619 L 303.208 49.399 L 297.948 31.309 C 297.877 31.053 298.024 30.786 298.278 30.709 C 298.538 30.632 298.811 30.779 298.888 31.039 L 304.298 49.649 C 304.34 49.785 304.317 49.932 304.238 50.049 C 304.158 50.169 304.031 50.249 303.888 50.269 L 291.888 51.499 L 292.088 58.669 L 298.388 59.749 C 298.773 59.784 298.976 60.222 298.754 60.538 C 298.65 60.685 298.477 60.765 298.298 60.749 Z" fill="#231f20"/>
  <path d="M 254.438 92.309 C 253.887 91.8 253.309 91.319 252.708 90.869 C 251.408 89.869 248.618 88.459 247.818 90.759 C 247.318 92.179 248.088 94.069 248.618 95.379 C 249.665 97.885 251.261 100.123 253.288 101.929 C 255.058 103.529 260.698 105.839 260.288 101.379 C 260.18 100.572 259.922 99.792 259.528 99.079 C 258.256 96.533 256.531 94.239 254.438 92.309 Z" fill="#fff"/>
  <path d="M 258.208 104.419 C 256.288 104.264 254.465 103.508 252.998 102.259 C 250.92 100.409 249.283 98.116 248.208 95.549 C 247.668 94.209 246.848 92.199 247.398 90.609 C 247.598 89.933 248.117 89.398 248.788 89.179 C 250.418 88.689 252.568 90.179 252.978 90.519 C 253.589 90.976 254.177 91.463 254.738 91.979 L 254.738 91.979 C 256.877 93.943 258.639 96.282 259.938 98.879 C 260.355 99.642 260.627 100.477 260.738 101.339 C 260.898 103.079 260.178 103.829 259.538 104.139 C 259.124 104.337 258.668 104.433 258.208 104.419 Z M 249.488 89.969 C 249.339 89.967 249.191 89.988 249.048 90.029 C 248.644 90.163 248.338 90.496 248.238 90.909 C 247.798 92.169 248.538 93.999 249.028 95.209 C 250.051 97.654 251.609 99.837 253.588 101.599 C 254.848 102.749 257.808 104.019 259.148 103.349 C 259.718 103.059 259.948 102.429 259.858 101.419 C 259.749 100.668 259.505 99.943 259.138 99.279 C 257.897 96.775 256.202 94.524 254.138 92.639 C 253.598 92.139 253.028 91.639 252.448 91.229 C 251.602 90.535 250.575 90.097 249.488 89.969 Z" fill="#231f20"/>
  <path d="M 273.488 94.799 C 273.103 94.53 272.637 94.399 272.168 94.429 C 271.874 94.499 271.604 94.648 271.388 94.859 C 270.572 95.7 270.182 96.866 270.328 98.029 C 270.472 99.175 270.828 100.284 271.378 101.299 C 272.908 104.479 274.978 107.559 278.048 109.299 C 278.599 109.626 279.201 109.859 279.828 109.989 C 285.288 110.989 283.028 105.569 281.688 103.119 C 279.789 99.632 276.947 96.749 273.488 94.799 Z" fill="#fff"/>
  <path d="M 280.998 110.529 C 280.579 110.525 280.161 110.485 279.748 110.409 C 279.075 110.271 278.429 110.021 277.838 109.669 C 275.138 108.149 272.898 105.479 270.978 101.499 C 270.41 100.431 270.037 99.269 269.878 98.069 C 269.717 96.769 270.164 95.467 271.088 94.539 C 271.362 94.266 271.71 94.079 272.088 93.999 C 272.656 93.945 273.225 94.09 273.698 94.409 L 273.698 94.409 C 277.224 96.4 280.126 99.332 282.078 102.879 C 283.078 104.659 284.508 107.879 283.308 109.569 C 282.747 110.255 281.88 110.616 280.998 110.529 Z M 272.358 94.859 L 272.238 94.859 C 272.029 94.914 271.839 95.024 271.688 95.179 C 270.968 95.922 270.629 96.954 270.768 97.979 C 270.904 99.073 271.243 100.131 271.768 101.099 C 273.598 104.919 275.768 107.459 278.248 108.879 C 278.754 109.185 279.309 109.402 279.888 109.519 C 281.258 109.769 282.158 109.599 282.558 109.039 C 283.338 107.949 282.408 105.359 281.278 103.299 C 279.418 99.901 276.648 97.089 273.278 95.179 C 273.002 95.001 272.686 94.891 272.358 94.859 Z" fill="#231f20"/>
  <path d="M 271.298 77.649 C 271.048 77.65 270.839 77.459 270.818 77.209 C 270.818 76.989 270.268 71.619 271.188 68.559 C 271.292 68.201 271.745 68.09 272.003 68.359 C 272.122 68.484 272.166 68.663 272.118 68.829 C 271.258 71.709 271.768 77.069 271.778 77.119 C 271.801 77.387 271.605 77.623 271.338 77.649 Z" fill="#fff"/>
  <rect x="6.518" y="39.959" width="213.76" height="151.41" rx="7.55" fill="#fff"/>
  <path d="M 212.728 191.859 L 14.068 191.859 C 9.661 191.832 6.095 188.266 6.068 183.859 L 6.068 47.509 C 6.068 43.091 9.65 39.509 14.068 39.509 L 212.728 39.509 C 217.146 39.509 220.728 43.091 220.728 47.509 L 220.728 183.829 C 220.745 188.259 217.158 191.859 212.728 191.859 Z M 14.068 40.449 C 10.167 40.449 7.004 43.608 6.998 47.509 L 6.998 183.829 C 7.004 187.73 10.167 190.889 14.068 190.889 L 212.728 190.889 C 216.625 190.884 219.783 187.726 219.788 183.829 L 219.788 47.509 C 219.783 43.612 216.625 40.455 212.728 40.449 Z" fill="#231f20"/>
  <rect x="14.418" y="59.539" width="197.95" height="123.87" fill="#231f20"/>
  <path d="M 212.368 183.909 L 14.418 183.909 C 14.142 183.909 13.918 183.685 13.918 183.409 L 13.918 59.539 C 13.918 59.263 14.142 59.039 14.418 59.039 L 212.418 59.039 C 212.694 59.039 212.918 59.263 212.918 59.539 L 212.918 183.409 C 212.92 183.706 212.664 183.939 212.368 183.909 Z M 14.948 182.909 L 211.948 182.909 L 211.948 60.039 L 14.948 60.039 Z" fill="#231f20"/>
  <rect x="14.418" y="47.919" width="197.95" height="11.62" fill="#522020"/>
  <path d="M 212.368 60.039 L 14.418 60.039 C 14.142 60.039 13.918 59.815 13.918 59.539 L 13.918 47.919 C 13.918 47.643 14.142 47.419 14.418 47.419 L 212.418 47.419 C 212.694 47.419 212.918 47.643 212.918 47.919 L 212.918 59.539 C 212.92 59.836 212.664 60.069 212.368 60.039 Z M 14.948 59.039 L 211.948 59.039 L 211.948 48.419 L 14.948 48.419 Z" fill="#522020"/>
  <path d="M 54.108 71.869 L 37.108 71.869 C 36.839 71.875 36.618 71.658 36.618 71.389 C 36.618 71.119 36.838 70.899 37.108 70.899 L 54.108 70.899 C 54.377 70.899 54.594 71.12 54.588 71.389 C 54.594 71.657 54.376 71.875 54.108 71.869 Z" fill="#fff"/>
  <path d="M 92.458 71.869 L 58.458 71.869 C 58.191 71.875 57.972 71.657 57.978 71.389 C 57.973 71.12 58.189 70.899 58.458 70.899 L 92.458 70.899 C 92.729 70.899 92.948 71.119 92.948 71.389 C 92.948 71.658 92.727 71.875 92.458 71.869 Z" fill="#522020"/>
  <path d="M 104.208 78.989 L 70.208 78.989 C 69.823 78.989 69.583 78.573 69.775 78.239 C 69.864 78.085 70.03 77.989 70.208 77.989 L 104.208 77.989 C 104.593 77.989 104.834 78.406 104.641 78.739 C 104.552 78.894 104.387 78.989 104.208 78.989 Z" fill="#522020"/>
  <path d="M 58.098 78.989 L 41.098 78.989 C 40.713 78.989 40.473 78.573 40.665 78.239 C 40.754 78.085 40.92 77.989 41.098 77.989 L 58.098 77.989 C 58.483 77.989 58.724 78.406 58.531 78.739 C 58.442 78.894 58.277 78.989 58.098 78.989 Z" fill="#fff"/>
  <path d="M 62.098 86.099 L 45.098 86.099 C 44.828 86.099 44.608 85.88 44.608 85.609 C 44.608 85.34 44.829 85.124 45.098 85.129 L 62.098 85.129 C 62.366 85.123 62.584 85.342 62.578 85.609 C 62.584 85.878 62.367 86.099 62.098 86.099 Z" fill="#fff"/>
  <path d="M 110.278 86.099 L 67.768 86.099 C 67.499 86.099 67.283 85.878 67.288 85.609 C 67.282 85.342 67.501 85.123 67.768 85.129 L 110.278 85.129 C 110.547 85.124 110.768 85.34 110.768 85.609 C 110.768 85.88 110.549 86.099 110.278 86.099 Z" fill="#522020"/>
  <path d="M 66.088 93.209 L 49.088 93.209 C 48.821 93.204 48.608 92.986 48.608 92.719 C 48.608 92.454 48.823 92.239 49.088 92.239 L 66.088 92.239 C 66.357 92.234 66.578 92.45 66.578 92.719 C 66.578 92.99 66.359 93.209 66.088 93.209 Z" fill="#fff"/>
  <path d="M 119.068 93.209 L 68.528 93.209 C 68.258 93.209 68.038 92.99 68.038 92.719 C 68.038 92.45 68.259 92.234 68.528 92.239 L 119.068 92.239 C 119.337 92.234 119.558 92.45 119.558 92.719 C 119.558 92.99 119.339 93.209 119.068 93.209 Z" fill="#522020"/>
  <path d="M 61.578 100.319 L 44.578 100.319 C 44.193 100.319 43.953 99.903 44.145 99.569 C 44.234 99.415 44.4 99.319 44.578 99.319 L 61.578 99.319 C 61.963 99.319 62.204 99.736 62.011 100.069 C 61.922 100.224 61.757 100.319 61.578 100.319 Z" fill="#fff"/>
  <path d="M 92.458 100.319 L 65.048 100.319 C 64.663 100.319 64.423 99.903 64.615 99.569 C 64.704 99.415 64.87 99.319 65.048 99.319 L 92.458 99.319 C 92.843 99.319 93.084 99.736 92.891 100.069 C 92.802 100.224 92.637 100.319 92.458 100.319 Z" fill="#522020"/>
  <path d="M 130.338 100.319 L 102.948 100.319 C 102.563 100.319 102.323 99.903 102.515 99.569 C 102.604 99.415 102.77 99.319 102.948 99.319 L 130.358 99.319 C 130.743 99.319 130.984 99.736 130.791 100.069 C 130.702 100.224 130.537 100.319 130.358 100.319 Z" fill="#522020"/>
  <path d="M 61.578 107.429 L 44.578 107.429 C 44.193 107.429 43.953 107.013 44.145 106.679 C 44.234 106.525 44.4 106.429 44.578 106.429 L 61.578 106.429 C 61.963 106.429 62.204 106.846 62.011 107.179 C 61.922 107.334 61.757 107.429 61.578 107.429 Z" fill="#fff"/>
  <path d="M 92.458 107.429 L 68.528 107.429 C 68.143 107.429 67.903 107.013 68.095 106.679 C 68.184 106.525 68.35 106.429 68.528 106.429 L 92.458 106.429 C 92.843 106.429 93.084 106.846 92.891 107.179 C 92.802 107.334 92.637 107.429 92.458 107.429 Z" fill="#522020"/>
  <path d="M 106.278 107.429 L 96.498 107.429 C 96.113 107.429 95.873 107.013 96.065 106.679 C 96.154 106.525 96.32 106.429 96.498 106.429 L 106.278 106.429 C 106.663 106.429 106.904 106.846 106.711 107.179 C 106.622 107.334 106.457 107.429 106.278 107.429 Z" fill="#522020"/>
  <path d="M 61.578 114.539 L 44.578 114.539 C 44.309 114.545 44.088 114.328 44.088 114.059 C 44.088 113.789 44.308 113.569 44.578 113.569 L 61.578 113.569 C 61.847 113.569 62.064 113.79 62.058 114.059 C 62.064 114.327 61.846 114.545 61.578 114.539 Z" fill="#fff"/>
  <path d="M 101.048 114.539 L 66.048 114.539 C 65.783 114.539 65.568 114.324 65.568 114.059 C 65.568 113.792 65.781 113.575 66.048 113.569 L 101.048 113.569 C 101.319 113.569 101.538 113.789 101.538 114.059 C 101.538 114.328 101.317 114.545 101.048 114.539 Z" fill="#522020"/>
  <path d="M 122.188 114.539 L 105.188 114.539 C 104.919 114.545 104.698 114.328 104.698 114.059 C 104.698 113.789 104.918 113.569 105.188 113.569 L 122.188 113.569 C 122.455 113.575 122.668 113.792 122.668 114.059 C 122.668 114.324 122.453 114.539 122.188 114.539 Z" fill="#522020"/>
  <path d="M 49.588 121.649 L 40.588 121.649 C 40.203 121.649 39.963 121.233 40.155 120.899 C 40.244 120.745 40.41 120.649 40.588 120.649 L 49.588 120.649 C 49.973 120.649 50.214 121.066 50.021 121.399 C 49.932 121.554 49.767 121.649 49.588 121.649 Z" fill="#fff"/>
  <path d="M 96.498 121.649 L 57.058 121.649 C 56.673 121.649 56.433 121.233 56.625 120.899 C 56.714 120.745 56.88 120.649 57.058 120.649 L 96.498 120.649 C 96.883 120.649 97.124 121.066 96.931 121.399 C 96.842 121.554 96.677 121.649 96.498 121.649 Z" fill="#522020"/>
  <path d="M 57.578 128.769 L 40.578 128.769 C 40.193 128.769 39.953 128.353 40.145 128.019 C 40.234 127.865 40.4 127.769 40.578 127.769 L 57.578 127.769 C 57.963 127.769 58.204 128.186 58.011 128.519 C 57.922 128.674 57.757 128.769 57.578 128.769 Z" fill="#fff"/>
  <path d="M 77.038 135.879 L 43.038 135.879 C 42.769 135.879 42.553 135.658 42.558 135.389 C 42.552 135.122 42.771 134.903 43.038 134.909 L 77.038 134.909 C 77.307 134.904 77.528 135.12 77.528 135.389 C 77.528 135.66 77.309 135.879 77.038 135.879 Z" fill="#fff"/>
  <path d="M 106.278 135.879 L 82.668 135.879 C 82.399 135.879 82.183 135.658 82.188 135.389 C 82.182 135.122 82.401 134.903 82.668 134.909 L 106.278 134.909 C 106.547 134.904 106.768 135.12 106.768 135.389 C 106.768 135.66 106.549 135.879 106.278 135.879 Z" fill="#522020"/>
  <path d="M 138.888 135.879 L 109.658 135.879 C 109.389 135.879 109.173 135.658 109.178 135.389 C 109.172 135.122 109.391 134.903 109.658 134.909 L 138.888 134.909 C 139.153 134.909 139.368 135.124 139.368 135.389 C 139.368 135.656 139.155 135.874 138.888 135.879 Z" fill="#522020"/>
  <path d="M 94.058 142.989 L 44.558 142.989 C 44.288 142.989 44.068 142.77 44.068 142.499 C 44.068 142.23 44.289 142.014 44.558 142.019 L 94.058 142.019 C 94.327 142.014 94.548 142.23 94.548 142.499 C 94.548 142.77 94.329 142.989 94.058 142.989 Z" fill="#fff"/>
  <path d="M 119.708 142.989 L 97.438 142.989 C 97.168 142.989 96.948 142.77 96.948 142.499 C 96.948 142.23 97.169 142.014 97.438 142.019 L 119.708 142.019 C 119.976 142.013 120.194 142.232 120.188 142.499 C 120.194 142.768 119.977 142.989 119.708 142.989 Z" fill="#522020"/>
  <path d="M 189.698 142.989 L 123.478 142.989 C 123.211 142.984 122.998 142.766 122.998 142.499 C 122.998 142.234 123.213 142.019 123.478 142.019 L 189.698 142.019 C 189.967 142.014 190.188 142.23 190.188 142.499 C 190.188 142.77 189.969 142.989 189.698 142.989 Z" fill="#522020"/>
  <path d="M 67.768 150.099 L 44.358 150.099 C 43.973 150.099 43.733 149.683 43.925 149.349 C 44.014 149.195 44.18 149.099 44.358 149.099 L 67.768 149.099 C 68.153 149.099 68.394 149.516 68.201 149.849 C 68.112 150.004 67.947 150.099 67.768 150.099 Z" fill="#fff"/>
  <path d="M 89.668 150.099 L 72.428 150.099 C 72.043 150.099 71.803 149.683 71.995 149.349 C 72.084 149.195 72.25 149.099 72.428 149.099 L 89.668 149.099 C 90.053 149.099 90.294 149.516 90.101 149.849 C 90.012 150.004 89.847 150.099 89.668 150.099 Z" fill="#522020"/>
  <path d="M 111.548 150.099 L 94.308 150.099 C 93.923 150.099 93.683 149.683 93.875 149.349 C 93.964 149.195 94.13 149.099 94.308 149.099 L 111.548 149.099 C 111.933 149.099 112.174 149.516 111.981 149.849 C 111.892 150.004 111.727 150.099 111.548 150.099 Z" fill="#522020"/>
  <path d="M 85.748 157.209 L 44.358 157.209 C 44.089 157.215 43.868 156.998 43.868 156.729 C 43.868 156.459 44.088 156.239 44.358 156.239 L 85.748 156.239 C 86.019 156.239 86.238 156.459 86.238 156.729 C 86.238 156.998 86.017 157.215 85.748 157.209 Z" fill="#fff"/>
  <path d="M 111.548 157.209 L 90.848 157.209 C 90.581 157.215 90.362 156.997 90.368 156.729 C 90.363 156.46 90.579 156.239 90.848 156.239 L 111.548 156.239 C 111.817 156.239 112.034 156.46 112.028 156.729 C 112.034 156.997 111.816 157.215 111.548 157.209 Z" fill="#522020"/>
  <path d="M 148.148 157.209 L 116.628 157.209 C 116.361 157.215 116.142 156.997 116.148 156.729 C 116.143 156.46 116.359 156.239 116.628 156.239 L 148.148 156.239 C 148.419 156.239 148.638 156.459 148.638 156.729 C 148.638 156.998 148.417 157.215 148.148 157.209 Z" fill="#522020"/>
  <path d="M 182.948 157.209 L 151.468 157.209 C 151.199 157.215 150.978 156.998 150.978 156.729 C 150.978 156.459 151.198 156.239 151.468 156.239 L 182.948 156.239 C 183.219 156.239 183.438 156.459 183.438 156.729 C 183.438 156.998 183.217 157.215 182.948 157.209 Z" fill="#522020"/>
  <path d="M 79.518 164.319 L 54.828 164.319 C 54.559 164.325 54.338 164.108 54.338 163.839 C 54.338 163.569 54.558 163.349 54.828 163.349 L 79.518 163.349 C 79.787 163.349 80.004 163.57 79.998 163.839 C 80.004 164.107 79.786 164.325 79.518 164.319 Z" fill="#fff"/>
  <path d="M 108.838 164.319 L 84.148 164.319 C 83.881 164.325 83.662 164.107 83.668 163.839 C 83.663 163.57 83.879 163.349 84.148 163.349 L 108.838 163.349 C 109.109 163.349 109.328 163.569 109.328 163.839 C 109.328 164.108 109.107 164.325 108.838 164.319 Z" fill="#522020"/>
  <path d="M 138.368 164.319 L 113.678 164.319 C 113.409 164.325 113.188 164.108 113.188 163.839 C 113.188 163.569 113.408 163.349 113.678 163.349 L 138.368 163.349 C 138.637 163.349 138.854 163.57 138.848 163.839 C 138.854 164.107 138.636 164.325 138.368 164.319 Z" fill="#522020"/>
  <path d="M 168.948 165.119 L 144.248 165.119 C 143.863 165.119 143.623 164.703 143.815 164.369 C 143.904 164.215 144.07 164.119 144.248 164.119 L 168.948 164.119 C 169.333 164.119 169.574 164.536 169.381 164.869 C 169.292 165.024 169.127 165.119 168.948 165.119 Z" fill="#522020"/>
  <path d="M 75.518 171.429 L 58.518 171.429 C 58.251 171.435 58.032 171.217 58.038 170.949 C 58.033 170.68 58.249 170.459 58.518 170.459 L 75.518 170.459 C 75.789 170.459 76.008 170.679 76.008 170.949 C 76.008 171.218 75.787 171.435 75.518 171.429 Z" fill="#fff"/>
  <path d="M 96.538 171.429 L 79.538 171.429 C 79.269 171.435 79.048 171.218 79.048 170.949 C 79.048 170.679 79.268 170.459 79.538 170.459 L 96.538 170.459 C 96.807 170.459 97.024 170.68 97.018 170.949 C 97.024 171.217 96.806 171.435 96.538 171.429 Z" fill="#522020"/>
  <path d="M 135.838 172.149 L 135.838 172.149 L 100.698 171.429 C 100.429 171.429 100.213 171.208 100.218 170.939 C 100.212 170.664 100.443 170.442 100.718 170.459 L 135.858 171.179 C 136.243 171.179 136.484 171.596 136.291 171.929 C 136.202 172.084 136.037 172.179 135.858 172.179 Z" fill="#522020"/>
  <path d="M 148.948 93.209 L 125.948 93.209 C 125.679 93.209 125.463 92.988 125.468 92.719 C 125.462 92.452 125.681 92.233 125.948 92.239 L 148.948 92.239 C 149.217 92.234 149.438 92.45 149.438 92.719 C 149.438 92.99 149.219 93.209 148.948 93.209 Z" fill="#522020"/>
  <path d="M 165.948 93.279 C 161.448 93.279 158.108 93.279 157.948 93.179 C 157.59 93.079 157.475 92.629 157.74 92.369 C 157.864 92.248 158.042 92.203 158.208 92.249 C 159.088 92.359 174.268 92.299 184.308 92.249 L 184.308 92.249 C 184.577 92.244 184.798 92.46 184.798 92.729 C 184.798 93 184.579 93.219 184.308 93.219 C 178.948 93.239 171.548 93.279 165.948 93.279 Z" fill="#522020"/>
  <path d="M 145.278 78.989 L 111.878 78.989 C 111.493 78.989 111.253 78.573 111.445 78.239 C 111.534 78.085 111.7 77.989 111.878 77.989 L 145.278 77.989 C 145.663 77.989 145.904 78.406 145.711 78.739 C 145.622 78.894 145.457 78.989 145.278 78.989 Z" fill="#522020"/>
  <path d="M 185.228 78.989 L 151.948 78.989 C 151.563 78.989 151.323 78.573 151.515 78.239 C 151.604 78.085 151.77 77.989 151.948 77.989 L 185.188 77.989 C 185.573 77.989 185.814 78.406 185.621 78.739 C 185.532 78.894 185.367 78.989 185.188 78.989 Z" fill="#522020"/>
  <path d="M 113.948 71.909 C 107.778 71.909 103.078 71.909 102.888 71.909 C 102.624 71.863 102.446 71.614 102.488 71.349 C 102.529 71.091 102.769 70.913 103.028 70.949 C 103.878 71.009 128.538 70.949 141.478 70.949 L 141.478 70.949 C 141.749 70.949 141.968 71.169 141.968 71.439 C 141.968 71.708 141.747 71.925 141.478 71.919 C 136.048 71.889 123.288 71.909 113.948 71.909 Z" fill="#522020"/>
  <path d="M 150.488 71.899 C 150.306 71.895 150.142 71.786 150.068 71.619 C 149.967 71.362 150.08 71.071 150.328 70.949 C 150.718 70.759 158.488 70.739 173.408 70.949 C 173.673 70.96 173.883 71.175 173.888 71.439 C 173.888 71.708 173.667 71.925 173.398 71.919 L 173.398 71.919 C 164.708 71.829 151.498 71.749 150.678 71.919 C 150.614 71.931 150.548 71.924 150.488 71.899 Z" fill="#fff"/>
  <path d="M 118.268 121.649 L 101.048 121.649 C 100.663 121.649 100.423 121.233 100.615 120.899 C 100.704 120.745 100.87 120.649 101.048 120.649 L 118.268 120.649 C 118.653 120.649 118.894 121.066 118.701 121.399 C 118.612 121.554 118.447 121.649 118.268 121.649 Z" fill="#522020"/>
  <path d="M 78.758 128.769 L 66.088 128.769 C 65.703 128.769 65.463 128.353 65.655 128.019 C 65.744 127.865 65.91 127.769 66.088 127.769 L 78.758 127.769 C 79.143 127.769 79.384 128.186 79.191 128.519 C 79.102 128.674 78.937 128.769 78.758 128.769 Z" fill="#522020"/>
  <path d="M 113.678 128.769 L 83.568 128.769 C 83.183 128.769 82.943 128.353 83.135 128.019 C 83.224 127.865 83.39 127.769 83.568 127.769 L 113.678 127.769 C 114.063 127.769 114.304 128.186 114.111 128.519 C 114.022 128.674 113.857 128.769 113.678 128.769 Z" fill="#fff"/>
  <path d="M 178.038 128.769 L 119.708 128.769 C 119.323 128.769 119.083 128.353 119.275 128.019 C 119.364 127.865 119.53 127.769 119.708 127.769 L 178.038 127.769 C 178.423 127.769 178.664 128.186 178.471 128.519 C 178.382 128.674 178.217 128.769 178.038 128.769 Z" fill="#522020"/>
  <circle cx="21.948" cy="53.729" r="1.7" fill="#231f20"/>
  <circle cx="27.908" cy="53.729" r="1.7" fill="#fff"/>
  <circle cx="33.868" cy="53.729" r="1.7" fill="#fff"/>
  <polygon points="145.198 213.289 81.588 213.289 88.778 191.369 138.008 191.369 145.198 213.289" fill="#fff"/>
  <path d="M 145.198 213.789 L 81.588 213.789 C 81.244 213.801 80.996 213.464 81.108 213.139 L 88.298 191.219 C 88.364 191.01 88.559 190.868 88.778 190.869 L 138.008 190.869 C 138.228 190.868 138.422 191.01 138.488 191.219 L 145.678 213.139 C 145.791 213.464 145.542 213.801 145.198 213.789 Z M 82.278 212.789 L 144.508 212.789 L 137.648 191.869 L 89.138 191.869 Z" fill="#231f20"/>
  <rect x="73.248" y="213.289" width="80.29" height="6.17" rx="3.09" fill="#fff"/>
  <path d="M 150.458 219.969 L 76.338 219.969 C 73.575 219.969 71.847 216.978 73.229 214.584 C 73.87 213.473 75.056 212.789 76.338 212.789 L 150.458 212.789 C 153.222 212.789 154.949 215.781 153.567 218.174 C 152.926 219.285 151.741 219.969 150.458 219.969 Z M 76.338 213.789 C 74.344 213.789 73.098 215.948 74.095 217.674 C 74.558 218.476 75.413 218.969 76.338 218.969 L 150.458 218.969 C 152.452 218.969 153.698 216.811 152.701 215.084 C 152.239 214.283 151.384 213.789 150.458 213.789 Z" fill="#231f20"/>
  <path d="M 83.498 207.479 C 84.498 206.939 139.598 196.879 139.598 196.879 L 137.788 191.369 L 88.558 191.369 Z" fill="#231f20"/>
  <path d="M 83.488 207.979 C 83.374 207.978 83.263 207.936 83.178 207.859 C 83.03 207.731 82.974 207.525 83.038 207.339 L 88.098 191.229 C 88.157 191.025 88.346 190.885 88.558 190.889 L 137.788 190.889 C 137.998 190.884 138.186 191.019 138.248 191.219 L 140.058 196.719 C 140.14 197 139.965 197.291 139.678 197.349 C 124.578 200.109 85.068 207.399 83.678 207.929 C 83.618 207.957 83.554 207.974 83.488 207.979 Z M 88.948 191.859 L 84.248 206.809 C 90.868 205.309 129.428 198.249 138.988 196.499 L 137.468 191.859 Z" fill="#231f20"/>
</svg>