<?xml version="1.0" encoding="utf-8"?>
<svg viewBox="0 0 292 240" xmlns="http://www.w3.org/2000/svg">
  <g id="_485_settings_flatline" data-name="#485_settings_flatline" transform="matrix(1, 0, 0, 1, -59.346043, -30.507763)">
    <path d="M205.19,59.89c.35-.23.85-.46,1.15-.17s.12.82-.12,1.17a10.93,10.93,0,0,1-2.36,2.58,17.06,17.06,0,0,1,4.94-1.42c.34,0,.79,0,.86.33s-.18.5-.4.66a14.49,14.49,0,0,1-4.84,2.22,5.84,5.84,0,0,1,3.07.32.85.85,0,0,1,.44.32c.18.37-.22.74-.58.94-3.58,2-7.76,2.51-11.84,2.77a.79.79,0,0,1-.48-.07c-.29-.18-.22-.62-.11-1C196.52,64.12,201.4,62.34,205.19,59.89Z" fill="#fff"/>
    <path d="M195.36,70.12a1.18,1.18,0,0,1-.6-.15,1.22,1.22,0,0,1-.31-1.54c1.31-3.67,4.65-5.58,7.87-7.42.87-.5,1.77-1,2.6-1.54s1.52-.34,1.76-.12c.45.42.44,1.1,0,1.82a11.45,11.45,0,0,1-.73,1,17,17,0,0,1,2.83-.6c.75-.09,1.28.17,1.41.7.07.3,0,.74-.6,1.18A15.4,15.4,0,0,1,207,64.9a5.82,5.82,0,0,1,.67.22,1.22,1.22,0,0,1,.7.56c.28.55,0,1.18-.78,1.6-3.7,2-8,2.57-12.05,2.83Zm10.62-10a1.09,1.09,0,0,0-.52.22h0c-.85.54-1.76,1.06-2.64,1.57-3.07,1.75-6.24,3.57-7.43,6.88a.92.92,0,0,0-.06.4s.11,0,.15,0c4-.25,8.1-.76,11.63-2.71a1.14,1.14,0,0,0,.35-.29h0l-.15-.06a5.3,5.3,0,0,0-2.81-.29.51.51,0,0,1-.57-.4.5.5,0,0,1,.37-.58A14.18,14.18,0,0,0,209,62.63a.53.53,0,0,0,.11-.09h-.21a16.31,16.31,0,0,0-4.8,1.37.5.5,0,0,1-.52-.84,10.58,10.58,0,0,0,2.26-2.46.85.85,0,0,0,.19-.54Zm-.79-.19h0Z" fill="#231f20"/>
    <path d="M308.39,252.71H91.61a.5.5,0,1,1,0-1H308.39a.5.5,0,0,1,0,1Z" fill="#d1d3d4"/>
    <path d="M151.16,65.74s48.77-3.56,48.77-3.26-1.71,7.94-1.71,7.94-41.95,13.87-47.06,9.15S151.16,65.74,151.16,65.74Z" fill="#522020"/>
    <path d="M136,260.4a1.46,1.46,0,0,1-.29,0,2,2,0,0,1-1.69-2.26L159.79,77.59a2,2,0,0,1,4,.57L138,258.69A2,2,0,0,1,136,260.4Z" fill="#231f20"/>
    <path d="M102.17,260.4a1.42,1.42,0,0,1-.29,0,2,2,0,0,1-1.69-2.26L126,77.59a2,2,0,0,1,4,.57L104.15,258.69A2,2,0,0,1,102.17,260.4Z" fill="#231f20"/>
    <path d="M137.78,237.38H105.45a2,2,0,1,1,0-4h32.33a2,2,0,0,1,0,4Z" fill="#231f20"/>
    <path d="M141.49,211.4H109.16a2,2,0,0,1,0-4h32.33a2,2,0,0,1,0,4Z" fill="#231f20"/>
    <path d="M145.19,185.42H112.87a2,2,0,1,1,0-4h32.32a2,2,0,0,1,0,4Z" fill="#231f20"/>
    <path d="M148.9,159.44H116.58a2,2,0,1,1,0-4H148.9a2,2,0,1,1,0,4Z" fill="#231f20"/>
    <path d="M152.61,133.46H120.29a2,2,0,1,1,0-4h32.32a2,2,0,0,1,0,4Z" fill="#231f20"/>
    <path d="M156.32,107.49H124a2,2,0,0,1,0-4h32.32a2,2,0,0,1,0,4Z" fill="#231f20"/>
    <path d="M170.92,96.25c1-2.93,2-5.87,3-8.8.53-1.51,1.14-3,1.76-4.49a4.34,4.34,0,0,1,4.65-2.86c2.38.27,4.73.77,7.1,1.15a21.74,21.74,0,0,0,3.82.5,4.21,4.21,0,0,0,2.63-.85c2.72-2.59,5.33-5.3,7.9-8a4,4,0,0,0,.81-3.76c-.61-2.87-1.3-5.72-1.88-8.59a11.52,11.52,0,0,1-.32-3.4,3.21,3.21,0,0,1,1.11-2.17,52.27,52.27,0,0,1,14.2-6.47,3.52,3.52,0,0,1,4.05,1.46c1.81,2.49,3.72,4.91,5.45,7.45a5.76,5.76,0,0,0,5.6,2.82c3.13-.23,6.28-.28,9.43-.43a3.56,3.56,0,0,0,2.84-1.71c1.12-1.66,2.18-3.36,3.28-5,.94-1.43,1.87-2.88,2.87-4.27a3.61,3.61,0,0,1,4.34-1.5c4.35,1.5,8.7,3,13,4.7a3.81,3.81,0,0,1,2.35,4.2c-.24,2.41-.78,4.79-1.17,7.19-.18,1.13-.35,2.27-.44,3.41a4.67,4.67,0,0,0,1.45,4c2.29,2.16,4.62,4.29,6.83,6.54a5.11,5.11,0,0,0,5.1,1.45c3.11-.68,6.2-1.43,9.31-2.11,2.45-.53,4.13.22,5.21,2.48q2.67,5.57,5.13,11.22c1.19,2.75.76,4.34-1.6,6.21-1.6,1.27-3.33,2.37-5,3.58-1.17.88-2.32,1.79-3.43,2.75a4,4,0,0,0-1.45,3.22c.07,3.26.12,6.52.27,9.77a5.12,5.12,0,0,0,2.61,4.33c1.78,1.06,3.59,2.09,5.35,3.17a33.25,33.25,0,0,1,3.21,2.15,3.85,3.85,0,0,1,1.44,4.67q-2.14,5.88-4.39,11.74a7.94,7.94,0,0,1-1,1.67,3.47,3.47,0,0,1-3.65,1.72c-2.83-.46-5.65-.94-8.47-1.41-.21,0-.43,0-.64-.1a6.07,6.07,0,0,0-6.47,2.27c-1.59,1.88-3.39,3.58-5.11,5.36a6.12,6.12,0,0,0-1.57,6.14c.69,2.74,1.37,5.48,1.93,8.25.59,2.93,0,4.19-2.66,5.48-3.83,1.84-7.72,3.57-11.63,5.24a3.88,3.88,0,0,1-5.15-1.35c-1.51-1.91-2.9-3.91-4.31-5.9-3-4.26-3.79-4.64-9-4.37-2,.1-4.08.23-6.12.34a5.64,5.64,0,0,0-4.79,2.8c-1.24,2-2.43,4.14-3.73,6.15a19.27,19.27,0,0,1-2.35,2.92,2.88,2.88,0,0,1-3.23.83q-6.18-2.3-12.34-4.61a8.62,8.62,0,0,1-1.58-.91,3.47,3.47,0,0,1-1.74-3.65c.45-2.79.93-5.57,1.36-8.36.13-.85.21-1.71.26-2.57a4.47,4.47,0,0,0-1.42-3.78q-3.36-3.07-6.68-6.22a4.91,4.91,0,0,0-4.86-1.19c-2.74.68-5.5,1.28-8.25,1.91l-.32.08c-3.6.66-4.76.18-6.33-3.13-1.73-3.68-3.31-7.44-4.85-11.21-.93-2.32-.53-3.63,1.49-5.16,2.2-1.67,4.43-3.29,6.75-4.78a6.61,6.61,0,0,0,3.3-6.5c-.2-2.93-.28-5.86-.43-8.8a3.66,3.66,0,0,0-1.71-3.06c-2.44-1.56-4.9-3.09-7.33-4.67-1.6-1-3.21-2.06-3.86-4Zm93.29,16.38a27.82,27.82,0,0,0-28-27.88c-12.85-.06-27.43,11.21-27.42,27.91a27.86,27.86,0,0,0,27.6,27.72C254.24,140.41,265,124.92,264.21,112.63Z" fill="#fff"/>
    <path d="M220.52,178.65a3.61,3.61,0,0,1-1.23-.23l-3.38-1.26q-4.49-1.66-9-3.35a7.88,7.88,0,0,1-1.45-.82l-.22-.14a3.93,3.93,0,0,1-2-4.14c.19-1.23.4-2.46.6-3.69.26-1.56.51-3.12.76-4.68.11-.73.19-1.53.25-2.52a4,4,0,0,0-1.25-3.38c-2-1.78-3.89-3.59-5.81-5.4l-.88-.82a4.37,4.37,0,0,0-4.4-1.07c-1.92.47-3.85.91-5.78,1.34l-2.59.59-.23.06c-3.89.71-5.24,0-6.87-3.4-1.91-4.07-3.6-8.15-4.86-11.25-1-2.5-.57-4.06,1.65-5.74,2.55-1.94,4.71-3.46,6.78-4.8a6.13,6.13,0,0,0,3.07-6c-.12-1.82-.2-3.67-.28-5.46,0-1.12-.09-2.23-.15-3.34a3.19,3.19,0,0,0-1.48-2.67l-3-1.93c-1.43-.9-2.87-1.81-4.3-2.74-1.67-1.08-3.36-2.18-4.05-4.27a.45.45,0,0,1,0-.16V96.25a.5.5,0,0,1,0-.16l.85-2.5c.71-2.1,1.42-4.21,2.17-6.3.56-1.59,1.21-3.18,1.77-4.52a4.78,4.78,0,0,1,5.17-3.16c1.58.17,3.17.46,4.71.73l2.4.42.95.16a13.68,13.68,0,0,0,2.79.33,3.84,3.84,0,0,0,2.3-.71c2.9-2.77,5.61-5.61,7.88-8a3.51,3.51,0,0,0,.68-3.31c-.27-1.27-.55-2.54-.84-3.8-.36-1.6-.72-3.2-1-4.8a12.11,12.11,0,0,1-.33-3.55,3.61,3.61,0,0,1,1.35-2.54A51.41,51.41,0,0,1,215.59,48a4,4,0,0,1,4.58,1.64c.64.88,1.29,1.75,1.94,2.62,1.18,1.57,2.4,3.2,3.53,4.85a5.26,5.26,0,0,0,5.14,2.6c2-.15,4.12-.22,6.12-.3l3.33-.13a3.08,3.08,0,0,0,2.45-1.49c.66-1,1.3-2,1.94-3,.44-.69.88-1.37,1.33-2l.47-.72c.77-1.18,1.57-2.4,2.42-3.57a4.06,4.06,0,0,1,4.9-1.68c5.23,1.8,9.24,3.25,13,4.7a4.28,4.28,0,0,1,2.66,4.71c-.15,1.62-.45,3.24-.74,4.81-.15.81-.29,1.61-.42,2.42-.18,1.07-.35,2.22-.44,3.37a4.17,4.17,0,0,0,1.3,3.59l1.62,1.52c1.73,1.62,3.52,3.31,5.21,5a4.63,4.63,0,0,0,4.64,1.31c1.52-.33,3-.68,4.56-1s3.17-.73,4.75-1.08c2.72-.58,4.61.32,5.77,2.76,1.78,3.71,3.5,7.49,5.13,11.23,1.28,2.94.81,4.78-1.74,6.8-.95.76-2,1.46-2.93,2.13-.69.48-1.37,1-2.05,1.46-1.24.93-2.36,1.82-3.41,2.72a3.5,3.5,0,0,0-1.27,2.84l0,2c.06,2.53.11,5.16.23,7.74a4.62,4.62,0,0,0,2.37,3.92l2.26,1.33c1,.61,2.07,1.21,3.1,1.84a37.15,37.15,0,0,1,3.25,2.19,4.3,4.3,0,0,1,1.6,5.23c-1.35,3.71-2.79,7.55-4.39,11.75a8.15,8.15,0,0,1-.92,1.63l-.09.14a4,4,0,0,1-4.15,1.93l-5.74-.95-2.95-.49a3.54,3.54,0,0,1-.45-.08,5.59,5.59,0,0,0-6,2.11c-1.12,1.33-2.37,2.59-3.57,3.8l-1.56,1.59a5.65,5.65,0,0,0-1.45,5.67c.67,2.61,1.36,5.42,1.94,8.27.65,3.19-.06,4.66-2.93,6-3.5,1.68-7.31,3.4-11.65,5.25a4.38,4.38,0,0,1-5.74-1.5c-1.25-1.58-2.44-3.25-3.58-4.87l-.75-1.05c-2.95-4.15-3.52-4.42-8.59-4.16-1.16.05-2.31.12-3.47.19l-2.64.15a5.11,5.11,0,0,0-4.39,2.56c-.42.68-.83,1.37-1.24,2.06-.8,1.36-1.63,2.76-2.5,4.1a19.15,19.15,0,0,1-2.41,3A3.48,3.48,0,0,1,220.52,178.65ZM194,146a5.25,5.25,0,0,1,3.7,1.53l.87.82q2.88,2.72,5.8,5.39a5,5,0,0,1,1.58,4.18c-.06,1-.14,1.85-.26,2.61-.25,1.57-.51,3.13-.76,4.7-.21,1.22-.41,2.45-.6,3.67a3,3,0,0,0,1.51,3.15l.23.15a6.62,6.62,0,0,0,1.25.71l9,3.36,3.38,1.25a2.35,2.35,0,0,0,2.69-.71,18.76,18.76,0,0,0,2.29-2.84c.86-1.33,1.69-2.72,2.48-4.07.41-.69.82-1.38,1.24-2.07a6.14,6.14,0,0,1,5.2-3c.88,0,1.75-.1,2.63-.15l3.48-.19c5.41-.28,6.3.15,9.46,4.58l.75,1.06c1.13,1.6,2.31,3.26,3.54,4.82s2.66,2,4.57,1.2c4.33-1.85,8.12-3.56,11.61-5.23,2.45-1.18,2.94-2.19,2.38-4.93s-1.27-5.63-1.93-8.23a6.64,6.64,0,0,1,1.7-6.6c.52-.54,1-1.07,1.57-1.6,1.19-1.2,2.42-2.45,3.52-3.75a6.57,6.57,0,0,1,7-2.43c.11,0,.23,0,.35.06l.25,0,2.73.45,5.74,1A3,3,0,0,0,296,143.3l.1-.14a7.89,7.89,0,0,0,.82-1.42c1.6-4.2,3-8,4.38-11.74a3.34,3.34,0,0,0-1.28-4.1,32.93,32.93,0,0,0-3.16-2.12c-1-.63-2.05-1.23-3.08-1.84-.76-.44-1.51-.88-2.26-1.34a5.57,5.57,0,0,1-2.85-4.73c-.13-2.59-.18-5.22-.24-7.76l0-2a4.48,4.48,0,0,1,1.62-3.61c1.07-.92,2.2-1.83,3.47-2.77.68-.5,1.37-1,2.07-1.48,1-.66,1.95-1.36,2.88-2.09,2.19-1.74,2.54-3.1,1.45-5.62-1.63-3.73-3.35-7.5-5.12-11.2-1-2-2.39-2.7-4.66-2.21-1.58.34-3.16.71-4.74,1.07s-3,.71-4.57,1a5.6,5.6,0,0,1-5.56-1.59c-1.68-1.71-3.46-3.38-5.19-5l-1.62-1.53a5.19,5.19,0,0,1-1.61-4.39c.1-1.18.27-2.36.45-3.45.13-.81.28-1.63.43-2.44.28-1.55.58-3.15.73-4.72a3.31,3.31,0,0,0-2-3.69c-3.77-1.44-7.77-2.89-13-4.68A3.13,3.13,0,0,0,249.65,49c-.83,1.15-1.63,2.37-2.4,3.54l-.46.72q-.67,1-1.32,2c-.65,1-1.3,2-2,3a4.07,4.07,0,0,1-3.24,1.93l-3.33.13c-2,.08-4.06.15-6.09.3a6.23,6.23,0,0,1-6-3c-1.12-1.63-2.33-3.25-3.5-4.81-.65-.88-1.3-1.75-1.94-2.63A3,3,0,0,0,215.84,49a51,51,0,0,0-14.05,6.41,2.71,2.71,0,0,0-.88,1.8,11,11,0,0,0,.31,3.25c.32,1.6.68,3.19,1,4.78.28,1.27.57,2.54.84,3.81a4.53,4.53,0,0,1-.93,4.2c-2.28,2.43-5,5.28-7.92,8.06a4.72,4.72,0,0,1-3,1,16.39,16.39,0,0,1-3-.34l-.92-.16c-.81-.13-1.62-.28-2.43-.42-1.52-.28-3.09-.56-4.64-.73a3.8,3.8,0,0,0-4.14,2.55c-.55,1.33-1.2,2.9-1.75,4.47-.74,2.09-1.45,4.19-2.16,6.29l-.83,2.43v.91c.6,1.71,2.05,2.65,3.58,3.65s2.9,1.85,4.34,2.76l3,1.93a4.19,4.19,0,0,1,1.94,3.46c.06,1.11.11,2.23.15,3.35.08,1.78.15,3.63.28,5.44a7.12,7.12,0,0,1-3.53,7c-2.05,1.32-4.18,2.83-6.72,4.76-1.86,1.41-2.17,2.48-1.32,4.57,1.25,3.08,2.93,7.15,4.84,11.19,1.42,3,2.34,3.47,5.78,2.84a.76.76,0,0,0,.16,0l.14,0,2.48-.56c1.92-.44,3.85-.87,5.76-1.35A6.82,6.82,0,0,1,194,146Zm42.44-5.08h-.06a28.25,28.25,0,0,1-28.1-28.22,28,28,0,0,1,8.35-19.93c5.33-5.31,12.6-8.48,19.46-8.48h.11a28.24,28.24,0,0,1,28.54,28.36c.41,6.68-2.42,13.93-7.58,19.41A28.13,28.13,0,0,1,236.41,140.88Zm-.35-55.63a27.42,27.42,0,0,0-18.76,8.19,27.15,27.15,0,0,0,19,46.44h.06a27.16,27.16,0,0,0,20-8.54c5-5.29,7.7-12.27,7.3-18.68v0a27.25,27.25,0,0,0-27.54-27.38Z" fill="#231f20"/>
    <path d="M269.14,180.54c.3-.88.59-1.76.9-2.63.16-.46.35-.9.53-1.35a1.3,1.3,0,0,1,1.39-.85c.72.08,1.42.23,2.13.34a6.36,6.36,0,0,0,1.14.15,1.25,1.25,0,0,0,.79-.26c.81-.77,1.59-1.58,2.36-2.4a1.24,1.24,0,0,0,.25-1.13c-.19-.85-.39-1.71-.57-2.57a3.15,3.15,0,0,1-.09-1,.94.94,0,0,1,.33-.65,15.43,15.43,0,0,1,4.25-1.94,1.05,1.05,0,0,1,1.21.44c.54.74,1.11,1.47,1.63,2.23a1.73,1.73,0,0,0,1.68.84c.94-.07,1.88-.08,2.82-.13a1.06,1.06,0,0,0,.85-.51c.34-.5.65-1,1-1.51s.56-.86.86-1.28a1.09,1.09,0,0,1,1.3-.45c1.3.45,2.6.92,3.89,1.41a1.13,1.13,0,0,1,.7,1.26c-.07.72-.23,1.43-.35,2.15-.05.34-.1.68-.13,1a1.37,1.37,0,0,0,.44,1.19c.68.65,1.38,1.29,2,2a1.52,1.52,0,0,0,1.53.43c.93-.2,1.85-.42,2.78-.63a1.25,1.25,0,0,1,1.56.75c.53,1.11,1.05,2.23,1.54,3.36a1.32,1.32,0,0,1-.48,1.85c-.48.38-1,.71-1.49,1.08s-.69.53-1,.82a1.21,1.21,0,0,0-.43,1c0,1,0,2,.08,2.93a1.56,1.56,0,0,0,.78,1.29c.54.32,1.08.62,1.61,1,.32.2.65.41.95.64a1.17,1.17,0,0,1,.44,1.4c-.43,1.17-.87,2.35-1.32,3.52a2,2,0,0,1-.29.49,1,1,0,0,1-1.09.52l-2.53-.42-.19,0a1.81,1.81,0,0,0-1.94.67c-.48.57-1,1.08-1.53,1.61a1.84,1.84,0,0,0-.47,1.84c.21.82.41,1.64.58,2.47a1.22,1.22,0,0,1-.8,1.64c-1.14.55-2.31,1.07-3.48,1.57a1.16,1.16,0,0,1-1.54-.41c-.45-.57-.87-1.17-1.29-1.76-.91-1.28-1.14-1.39-2.7-1.31l-1.83.1a1.69,1.69,0,0,0-1.44.84c-.37.61-.72,1.24-1.11,1.84a6.5,6.5,0,0,1-.7.87.86.86,0,0,1-1,.25c-1.23-.46-2.47-.91-3.7-1.38a2.48,2.48,0,0,1-.47-.27,1,1,0,0,1-.52-1.09c.14-.84.28-1.67.41-2.51,0-.25.06-.51.08-.76a1.36,1.36,0,0,0-.43-1.14c-.67-.61-1.33-1.23-2-1.86a1.46,1.46,0,0,0-1.45-.35c-.82.2-1.65.38-2.47.57l-.1,0c-1.07.2-1.42.06-1.89-.93s-1-2.23-1.45-3.36a1.12,1.12,0,0,1,.44-1.55c.66-.49,1.33-1,2-1.42a2,2,0,0,0,1-2c-.06-.88-.08-1.76-.13-2.63a1.1,1.1,0,0,0-.51-.92c-.73-.47-1.47-.92-2.19-1.4a2.42,2.42,0,0,1-1.16-1.2Zm27.92,4.9a8.32,8.32,0,0,0-8.39-8.34,8.45,8.45,0,0,0-8.21,8.35,8.35,8.35,0,0,0,8.26,8.3A8.24,8.24,0,0,0,297.06,185.44Z" fill="#d1d3d4"/>
    <path d="M284,205.55a1.46,1.46,0,0,1-.49-.09l-.93-.35c-.92-.34-1.85-.68-2.76-1a3.43,3.43,0,0,1-.51-.28,1.58,1.58,0,0,1-.8-1.63l.17-1.08.24-1.42c0-.24.05-.48.07-.72a.88.88,0,0,0-.26-.74c-.59-.53-1.16-1.06-1.73-1.6l-.28-.26a1,1,0,0,0-1-.24l-1.72.4-.76.17-.12,0a1.83,1.83,0,0,1-2.43-1.21c-.58-1.23-1.09-2.45-1.46-3.38a1.58,1.58,0,0,1,.6-2.13c.77-.59,1.43-1.05,2.05-1.46a1.48,1.48,0,0,0,.76-1.49c0-.55-.06-1.11-.08-1.67l-.05-1a.6.6,0,0,0-.28-.52l-.9-.57-1.3-.83a2.89,2.89,0,0,1-1.35-1.46.41.41,0,0,1,0-.16v-.32a.41.41,0,0,1,0-.16l.3-.88.6-1.76c.17-.46.35-.92.54-1.37a1.79,1.79,0,0,1,1.91-1.16c.48,0,1,.14,1.43.22l.72.13.29.05a3.56,3.56,0,0,0,.76.09.89.89,0,0,0,.46-.12c.86-.82,1.67-1.67,2.34-2.38a.75.75,0,0,0,.12-.68c-.08-.38-.17-.76-.25-1.13s-.22-1-.32-1.45a4,4,0,0,1-.1-1.16,1.41,1.41,0,0,1,.56-1,16,16,0,0,1,4.39-2,1.55,1.55,0,0,1,1.75.62c.19.27.38.53.58.79.36.48.72,1,1.06,1.45a1.21,1.21,0,0,0,1.22.63c.61,0,1.23-.07,1.85-.09l1,0a.55.55,0,0,0,.46-.29l.57-.88.55-.84c.24-.37.47-.73.73-1.08a1.55,1.55,0,0,1,1.86-.63c1.57.54,2.78,1,3.91,1.41a1.64,1.64,0,0,1,1,1.77c-.05.5-.14,1-.22,1.47-.05.24-.09.48-.13.72s-.1.65-.13,1a.9.9,0,0,0,.28.79l.49.46c.53.5,1.06,1,1.57,1.51a1,1,0,0,0,1.06.3l1.36-.31,1.43-.32a1.73,1.73,0,0,1,2.11,1c.54,1.12,1,2.24,1.54,3.38a1.8,1.8,0,0,1-.62,2.45c-.29.23-.6.44-.9.65l-.6.43c-.34.25-.68.52-1,.79a.7.7,0,0,0-.26.58V184c0,.79,0,1.58.07,2.36a1.05,1.05,0,0,0,.54.89l.67.4.94.55a10.45,10.45,0,0,1,1,.68,1.65,1.65,0,0,1,.6,2c-.43,1.18-.87,2.35-1.32,3.52a2.47,2.47,0,0,1-.31.56,1.55,1.55,0,0,1-1.62.77l-2.53-.42-.23,0a1.33,1.33,0,0,0-1.44.52c-.34.4-.71.78-1.09,1.16l-.46.47a1.32,1.32,0,0,0-.35,1.37c.21.82.42,1.65.59,2.49a1.7,1.7,0,0,1-1.07,2.19c-1.05.5-2.2,1-3.5,1.57a1.65,1.65,0,0,1-2.13-.55c-.38-.47-.72-1-1.07-1.45l-.24-.33c-.81-1.14-.87-1.17-2.27-1.1l-1.82.1a1.18,1.18,0,0,0-1,.6l-.37.61c-.24.42-.49.83-.75,1.24a6.87,6.87,0,0,1-.76,1A1.44,1.44,0,0,1,284,205.55ZM276,195.07a1.92,1.92,0,0,1,1.35.55l.27.26,1.72,1.6A1.8,1.8,0,0,1,280,199a5.56,5.56,0,0,1-.08.82c-.07.48-.15,1-.23,1.44l-.17,1.07a.53.53,0,0,0,.3.59,1.88,1.88,0,0,0,.37.22l2.76,1,.93.35c.12,0,.26.06.44-.13a5.55,5.55,0,0,0,.64-.79c.25-.4.49-.8.73-1.21l.38-.62a2.18,2.18,0,0,1,1.83-1.08l1.83-.1c1.74-.09,2.12.09,3.14,1.52l.23.33c.34.48.68.95,1,1.41a.68.68,0,0,0,1,.25c1.29-.54,2.42-1,3.46-1.55.58-.29.65-.43.52-1.09-.17-.82-.37-1.64-.58-2.45a2.31,2.31,0,0,1,.6-2.3l.47-.48c.36-.36.71-.72,1-1.11a2.31,2.31,0,0,1,2.43-.84l.16,0,2.53.43a.55.55,0,0,0,.6-.3,2.57,2.57,0,0,0,.24-.4c.44-1.17.88-2.34,1.31-3.51a.66.66,0,0,0-.27-.83,8.15,8.15,0,0,0-.92-.61l-.91-.55-.68-.4a2.06,2.06,0,0,1-1-1.7c0-.8,0-1.59-.07-2.38v-.56a1.69,1.69,0,0,1,.61-1.35c.34-.3.69-.58,1.06-.85l.62-.44c.29-.2.57-.4.85-.62.53-.42.59-.66.33-1.27-.49-1.12-1-2.23-1.53-3.34a.75.75,0,0,0-1-.47l-1.41.32-1.38.31a2,2,0,0,1-2-.57c-.5-.51-1-1-1.54-1.48l-.49-.46a2,2,0,0,1-.59-1.6c0-.36.08-.71.14-1.06s.09-.49.13-.74a13.15,13.15,0,0,0,.21-1.38.65.65,0,0,0-.38-.74c-1.12-.43-2.31-.87-3.87-1.4a.57.57,0,0,0-.73.27c-.25.33-.48.68-.7,1l-.54.84-.59.9a1.57,1.57,0,0,1-1.25.73l-1,0c-.6,0-1.2,0-1.81.09a2.2,2.2,0,0,1-2.12-1.06c-.33-.49-.68-.95-1-1.42-.2-.27-.4-.53-.59-.8a.56.56,0,0,0-.68-.25,14.67,14.67,0,0,0-4.11,1.88.54.54,0,0,0-.1.27,3.17,3.17,0,0,0,.08.87c.1.48.2.95.31,1.43s.17.76.26,1.14a1.71,1.71,0,0,1-.37,1.57c-.68.73-1.5,1.59-2.38,2.43a1.78,1.78,0,0,1-1.13.39,4.86,4.86,0,0,1-1-.11l-.27-.05-.74-.12c-.45-.08-.9-.17-1.36-.22a.81.81,0,0,0-.88.55c-.18.44-.36.88-.52,1.32l-.6,1.75-.27,1a2.12,2.12,0,0,0,.91.86l1.31.84.9.57a1.57,1.57,0,0,1,.74,1.31l.05,1c0,.55,0,1.1.08,1.64a2.5,2.5,0,0,1-1.22,2.41c-.6.38-1.23.83-2,1.4-.44.33-.48.48-.29,1,.37.92.88,2.13,1.44,3.33.36.76.47.82,1.35.66l.84-.19,1.7-.4A2.34,2.34,0,0,1,276,195.07Zm12.7-.82h0a8.82,8.82,0,0,1-8.76-8.8,8.7,8.7,0,0,1,2.61-6.21,8.94,8.94,0,0,1,6.1-2.64,8.79,8.79,0,0,1,8.89,8.82,8.35,8.35,0,0,1-2.36,6.06A8.75,8.75,0,0,1,288.74,194.25Zm-.1-16.65a7.81,7.81,0,0,0-5.37,2.35,7.7,7.7,0,0,0-2.31,5.5,7.81,7.81,0,0,0,7.76,7.8h0a7.77,7.77,0,0,0,5.73-2.45,7.33,7.33,0,0,0,2.09-5.33v0a7.79,7.79,0,0,0-7.89-7.84Z" fill="#231f20"/>
    <path d="M187.11,214.5c.5-2,1-4,1.49-6,.27-1,.59-2,.91-3.06a2.88,2.88,0,0,1,2.91-2.16c1.59,0,3.17.24,4.75.36a14.67,14.67,0,0,0,2.56.11,2.76,2.76,0,0,0,1.69-.71c1.65-1.87,3.22-3.81,4.76-5.76a2.68,2.68,0,0,0,.32-2.53c-.56-1.86-1.18-3.7-1.73-5.57a7.42,7.42,0,0,1-.4-2.22,2.06,2.06,0,0,1,.61-1.5,34.54,34.54,0,0,1,9-5.09,2.34,2.34,0,0,1,2.76.74c1.34,1.54,2.73,3,4,4.61a3.84,3.84,0,0,0,3.86,1.55c2.06-.33,4.14-.55,6.21-.83a2.36,2.36,0,0,0,1.78-1.29c.64-1.16,1.24-2.34,1.87-3.51.55-1,1.08-2,1.66-3a2.39,2.39,0,0,1,2.78-1.23c3,.74,5.92,1.51,8.86,2.36a2.53,2.53,0,0,1,1.79,2.64c0,1.61-.25,3.21-.36,4.82-.06.76-.11,1.52-.1,2.28a3.11,3.11,0,0,0,1.18,2.55c1.64,1.3,3.3,2.57,4.88,3.93a3.4,3.4,0,0,0,3.46.67c2-.62,4-1.3,6-1.92a2.75,2.75,0,0,1,3.58,1.34c1.39,2.35,2.73,4.73,4,7.12.94,1.75.75,2.82-.71,4.19-1,.93-2.06,1.76-3.07,2.65-.73.65-1.44,1.31-2.12,2a2.63,2.63,0,0,0-.77,2.21c.23,2.15.45,4.3.74,6.44a3.38,3.38,0,0,0,2,2.71c1.23.6,2.48,1.18,3.71,1.79a22.08,22.08,0,0,1,2.24,1.24,2.54,2.54,0,0,1,1.22,3c-.72,2.68-1.47,5.35-2.23,8a6.12,6.12,0,0,1-.54,1.16A2.29,2.29,0,0,1,270.4,240c-1.89-.14-3.78-.3-5.67-.45-.14,0-.29,0-.43,0a4,4,0,0,0-4.15,1.87c-.94,1.33-2,2.56-3.06,3.83a4.07,4.07,0,0,0-.7,4.15c.62,1.77,1.22,3.54,1.75,5.34s.25,2.77-1.44,3.77c-2.43,1.43-4.9,2.8-7.39,4.12a2.57,2.57,0,0,1-3.48-.6c-1.11-1.17-2.14-2.42-3.18-3.65-2.25-2.64-2.77-2.85-6.21-2.38l-4,.58a3.72,3.72,0,0,0-3,2.12c-.7,1.43-1.37,2.87-2.11,4.28a13.53,13.53,0,0,1-1.39,2.06,1.9,1.9,0,0,1-2.09.73c-2.8-.78-5.61-1.55-8.41-2.34a5.26,5.26,0,0,1-1.1-.52,2.28,2.28,0,0,1-1.35-2.3c.13-1.87.29-3.74.42-5.61a16.26,16.26,0,0,0,0-1.71,3,3,0,0,0-1.15-2.41c-1.6-1.23-3.18-2.48-4.76-3.73a3.27,3.27,0,0,0-3.28-.52c-1.78.61-3.56,1.16-5.35,1.74a1.52,1.52,0,0,1-.2.06c-2.34.64-3.14.4-4.36-1.7-1.36-2.33-2.62-4.73-3.84-7.13-.75-1.48-.56-2.37.69-3.5s2.74-2.42,4.18-3.54a4.36,4.36,0,0,0,1.81-4.48c-.29-1.92-.51-3.86-.78-5.78a2.45,2.45,0,0,0-1.3-1.93c-1.71-.89-3.42-1.76-5.11-2.67a5.37,5.37,0,0,1-2.78-2.43ZM249.67,220a18.45,18.45,0,0,0-20.11-16.82c-8.49.69-17.48,9-16.52,20a18.47,18.47,0,0,0,19.81,16.74C244.66,238.93,250.88,228.09,249.67,220Z" fill="#522020"/>
    <path d="M224.37,266.29a2.33,2.33,0,0,1-.68-.1l-2.29-.63c-2-.57-4.09-1.13-6.13-1.71a4.92,4.92,0,0,1-1-.47l-.16-.09a2.78,2.78,0,0,1-1.61-2.78c.06-.84.12-1.69.19-2.53.08-1,.16-2.05.23-3.07a14.81,14.81,0,0,0,0-1.66,2.49,2.49,0,0,0-1-2c-1.44-1.1-2.87-2.23-4.29-3.35l-.48-.38a2.75,2.75,0,0,0-2.81-.43c-1.25.42-2.51.83-3.77,1.23l-1.58.5-.23.08c-2.6.71-3.61.31-4.92-1.94-1.5-2.58-2.85-5.18-3.86-7.16a3,3,0,0,1,.8-4.09c1.58-1.43,2.92-2.56,4.22-3.56a3.9,3.9,0,0,0,1.62-4c-.19-1.2-.34-2.41-.5-3.61-.09-.73-.18-1.46-.28-2.19a2,2,0,0,0-1.05-1.55l-2.12-1.1-3-1.57a5.74,5.74,0,0,1-3-2.67.75.75,0,0,1,0-.16l0-.68a.41.41,0,0,1,0-.19l.43-1.78c.35-1.4.69-2.81,1.06-4.21.28-1.08.6-2.13.92-3.1a3.37,3.37,0,0,1,3.3-2.5h.09c1.06,0,2.13.13,3.16.22l1.62.14.64.06a9.36,9.36,0,0,0,1.82,0,2.36,2.36,0,0,0,1.38-.54c1.75-2,3.38-4,4.74-5.74a2.18,2.18,0,0,0,.23-2.07c-.24-.83-.51-1.64-.77-2.46-.33-1-.65-2.07-1-3.12a8.17,8.17,0,0,1-.42-2.37,2.59,2.59,0,0,1,.81-1.89,34.85,34.85,0,0,1,9.14-5.16,2.85,2.85,0,0,1,3.31.88c.47.54.94,1.08,1.42,1.61.87,1,1.77,2,2.61,3a3.33,3.33,0,0,0,3.39,1.37c1.34-.21,2.71-.38,4-.54l2.19-.28a1.83,1.83,0,0,0,1.41-1c.38-.69.75-1.38,1.11-2.08.26-.47.51-1,.76-1.43l.3-.54c.44-.83.89-1.66,1.37-2.46a2.89,2.89,0,0,1,3.33-1.47c3.58.9,6.32,1.63,8.87,2.37a3,3,0,0,1,2.16,3.13c0,1.08-.12,2.18-.22,3.23q-.09.81-.15,1.62c-.05.71-.1,1.47-.09,2.23a2.62,2.62,0,0,0,1,2.17l1.14.89c1.24,1,2.53,2,3.76,3a2.89,2.89,0,0,0,3,.57c1-.3,2-.62,2.95-.94l3.08-1a3.22,3.22,0,0,1,4.16,1.57c1.39,2.35,2.75,4.75,4,7.13,1,1.93.81,3.27-.8,4.8-.59.55-1.22,1.08-1.83,1.58-.42.36-.85.71-1.26,1.08-.77.68-1.45,1.32-2.09,2a2.13,2.13,0,0,0-.63,1.81l.14,1.29c.18,1.71.37,3.43.59,5.14a2.87,2.87,0,0,0,1.7,2.32l1.55.75c.72.34,1.45.69,2.17,1.05a24.18,24.18,0,0,1,2.28,1.26,3,3,0,0,1,1.43,3.55c-.72,2.68-1.47,5.35-2.23,8a5.57,5.57,0,0,1-.53,1.16l0,.1a2.79,2.79,0,0,1-2.8,1.6l-3.91-.31-1.9-.15-.32,0a3.54,3.54,0,0,0-3.67,1.66c-.67.95-1.42,1.85-2.15,2.73-.32.37-.63.75-.94,1.13a3.56,3.56,0,0,0-.6,3.66c.58,1.69,1.2,3.51,1.75,5.37.63,2.14.21,3.23-1.67,4.34-2.22,1.31-4.64,2.66-7.41,4.13a3,3,0,0,1-4.07-.7c-.92-1-1.8-2-2.65-3l-.55-.65c-2.14-2.51-2.52-2.66-5.77-2.21l-2.31.33-1.7.25a3.22,3.22,0,0,0-2.63,1.84c-.24.48-.47,1-.7,1.44-.46,1-.92,1.91-1.42,2.85a13.61,13.61,0,0,1-1.44,2.14A2.45,2.45,0,0,1,224.37,266.29Zm-18.9-20.44a3.71,3.71,0,0,1,2.33.84l.48.39c1.42,1.12,2.84,2.24,4.28,3.34a3.45,3.45,0,0,1,1.34,2.8,16.49,16.49,0,0,1,0,1.75c-.07,1-.15,2.06-.23,3.09-.07.84-.13,1.68-.19,2.52a1.77,1.77,0,0,0,1.09,1.83l.16.09a4.39,4.39,0,0,0,.83.39l6.13,1.71,2.29.63a1.4,1.4,0,0,0,1.56-.57,12.13,12.13,0,0,0,1.34-2c.49-.92.94-1.87,1.4-2.81.23-.49.46-1,.7-1.45a4.22,4.22,0,0,1,3.39-2.39l1.7-.25,2.32-.33c3.61-.5,4.29-.24,6.66,2.55l.56.66c.83,1,1.7,2,2.6,3a2.09,2.09,0,0,0,2.89.5c2.74-1.46,5.15-2.81,7.36-4.11,1.48-.87,1.72-1.5,1.22-3.2s-1.16-3.64-1.74-5.32a4.55,4.55,0,0,1,.78-4.62l.94-1.14c.72-.86,1.46-1.75,2.11-2.67a4.49,4.49,0,0,1,4.62-2.07h.22l1.94.15,3.91.31a1.78,1.78,0,0,0,1.84-1.08l.06-.1a5,5,0,0,0,.44-.95c.76-2.67,1.5-5.33,2.23-8a2,2,0,0,0-1-2.45,22.09,22.09,0,0,0-2.19-1.21c-.71-.36-1.43-.7-2.15-1l-1.56-.75a3.89,3.89,0,0,1-2.25-3.09c-.23-1.72-.41-3.44-.6-5.16l-.14-1.29a3.14,3.14,0,0,1,.92-2.62c.65-.67,1.35-1.34,2.14-2,.42-.37.85-.73,1.28-1.09.6-.5,1.21-1,1.78-1.55,1.29-1.22,1.44-2.06.61-3.59-1.29-2.37-2.64-4.76-4-7.11a2.25,2.25,0,0,0-3-1.11c-1,.31-2.05.64-3.07,1l-3,.95a3.87,3.87,0,0,1-3.92-.77c-1.21-1-2.49-2-3.73-3l-1.14-.9a3.57,3.57,0,0,1-1.37-2.94c0-.8,0-1.58.1-2.32,0-.54.09-1.09.14-1.63.1-1,.2-2.11.22-3.16a2.09,2.09,0,0,0-1.43-2.15c-2.55-.74-5.28-1.46-8.84-2.36a1.88,1.88,0,0,0-2.23,1c-.48.79-.91,1.61-1.35,2.43l-.3.54-.75,1.42c-.37.7-.74,1.4-1.13,2.1A2.85,2.85,0,0,1,230.9,187l-2.19.28c-1.32.16-2.68.33-4,.54a4.27,4.27,0,0,1-4.32-1.72c-.83-1-1.72-2-2.59-3l-1.43-1.62a1.85,1.85,0,0,0-2.21-.6,33.9,33.9,0,0,0-8.88,5,1.66,1.66,0,0,0-.41,1.11,7.22,7.22,0,0,0,.38,2.08c.3,1,.63,2.07,1,3.1.26.82.52,1.64.77,2.47a3.16,3.16,0,0,1-.41,3c-1.36,1.73-3,3.78-4.77,5.78a3.42,3.42,0,0,1-2,.88,10.56,10.56,0,0,1-2-.06l-.61,0L195.5,204c-1-.09-2.06-.19-3.09-.22A2.35,2.35,0,0,0,190,205.6c-.31,1-.63,2-.9,3-.37,1.4-.71,2.8-1.05,4.2l-.42,1.7,0,.54a5.1,5.1,0,0,0,2.49,2.11l3,1.57,2.13,1.11a2.94,2.94,0,0,1,1.57,2.3c.1.73.19,1.46.29,2.19.15,1.2.3,2.39.49,3.59a4.89,4.89,0,0,1-2,5c-1.28,1-2.6,2.1-4.16,3.51-1.09,1-1.22,1.64-.58,2.9,1,2,2.35,4.55,3.83,7.11,1.08,1.86,1.62,2.07,3.8,1.47l.18-.06,1.58-.51c1.26-.4,2.51-.8,3.76-1.22A4.57,4.57,0,0,1,205.47,245.85ZM187.11,214.5h0Zm44.19,26a18.9,18.9,0,0,1-18.76-17.26A18.62,18.62,0,0,1,217,209.47,18.75,18.75,0,0,1,250.17,220a17.9,17.9,0,0,1-3.94,13.38,18.81,18.81,0,0,1-13.34,7.1Q232.1,240.49,231.3,240.49Zm-.13-36.86c-.52,0-1,0-1.57.06a18,18,0,0,0-11.88,6.42,17.71,17.71,0,0,0-4.19,13,17.95,17.95,0,0,0,31.92,9.57,16.9,16.9,0,0,0,3.73-12.62.08.08,0,0,0,0,0A17.85,17.85,0,0,0,231.17,203.63Z" fill="#231f20"/>
    <rect x="197.33" y="86.92" width="2.18" height="11.47" rx="1.09" transform="translate(112.01 -108.57) rotate(41.73)" fill="#231f20"/>
    <path d="M195.33,97.71a1.61,1.61,0,0,1-1.06-.4h0a1.57,1.57,0,0,1-.52-1.1,1.5,1.5,0,0,1,.4-1.14l6.18-6.94a1.59,1.59,0,0,1,2.37,2.12l-6.18,6.93a1.54,1.54,0,0,1-1.1.53Zm6.19-9.11a.57.57,0,0,0-.44.2l-6.19,6.93a.66.66,0,0,0-.15.43.57.57,0,0,0,.2.4h0a.61.61,0,0,0,.43.15.61.61,0,0,0,.4-.19L202,89.58a.6.6,0,0,0,.14-.42.57.57,0,0,0-.19-.41A.6.6,0,0,0,201.52,88.6Z" fill="#231f20"/>
    <line x1="202.24" y1="88.38" x2="208.2" y2="81.7" fill="#231f20"/>
    <path d="M202.24,88.88a.51.51,0,0,1-.33-.13.5.5,0,0,1,0-.71l6-6.68a.5.5,0,1,1,.74.67l-6,6.68A.5.5,0,0,1,202.24,88.88Z" fill="#231f20"/>
    <polygon points="208.39 82.71 207.26 82.74 207.17 81.62 209.31 79.5 209.78 79.92 210.25 80.34 208.39 82.71" fill="#231f20"/>
    <path d="M189,95.2l4.16-1.41s3.48-4.53,4.74-4.49-1.16,3.42-1,3.52,5.62-2.62,5.91-1.26-1.26,4-2.23,4.65-11.61,5-11.61,5Z" fill="#fff"/>
    <path d="M189,101.74a.47.47,0,0,1-.28-.09.49.49,0,0,1-.22-.41v-6a.49.49,0,0,1,.34-.47l4-1.37c.94-1.22,3.67-4.56,5-4.56h0a.82.82,0,0,1,.73.41c.33.58-.07,1.49-.73,2.71,2.11-.85,4-1.55,4.93-1.09a.91.91,0,0,1,.48.63c.35,1.64-1.39,4.43-2.43,5.15s-10.62,4.64-11.71,5.09A.43.43,0,0,1,189,101.74Zm.5-6.18v4.93c4.24-1.74,10.18-4.25,10.82-4.69.86-.6,2.26-3,2-4.14-.31-.16-1.74.25-4.22,1.26-1,.42-1.17.47-1.42.35a.6.6,0,0,1-.26-.31c-.09-.28,0-.49.42-1.2a10.28,10.28,0,0,0,.89-1.94c-.7.24-2.53,2.09-4.2,4.27a.51.51,0,0,1-.24.17Z" fill="#231f20"/>
    <path d="M123.57,173c0,.24-.57,6,0,6s5.59,1,5.59,1v-7Z" fill="#fff"/>
    <path d="M129.16,180.5h-.09c-2.42-.46-5.16-1-5.5-1a.73.73,0,0,1-.44-.19c-.28-.31-.49-1-.09-5.91,0-.23,0-.39,0-.44a.51.51,0,0,1,.5-.49h5.59a.5.5,0,0,1,.5.5v7a.53.53,0,0,1-.18.39A.52.52,0,0,1,129.16,180.5Zm-5.29-1.94c.95.12,3.51.59,4.79.84v-5.9H124A26.8,26.8,0,0,0,123.87,178.56Zm0,.16h0Z" fill="#231f20"/>
    <path d="M119.77,105.42c-.08.58,2.19,55.15,3.48,68.89,0,0,5.36,1.29,6,1.29S138.55,117,138.55,117Z" fill="#231f20"/>
    <path d="M129.26,176.1c-.67,0-5.22-1.08-6.13-1.3a.5.5,0,0,1-.38-.44c-1.23-13.13-3.59-68.21-3.47-69a.5.5,0,0,1,.28-.38.51.51,0,0,1,.48,0l18.77,11.57a.52.52,0,0,1,.24.5c0,.15-2.19,14.82-4.41,29.31C130.09,176.1,129.88,176.1,129.26,176.1Zm-5.55-2.19c2.12.5,4.36,1,5.22,1.15.93-3.61,5.85-35.95,9.08-57.82l-17.72-10.92C120.49,113.43,122.54,161,123.71,173.91Z" fill="#231f20"/>
    <path d="M138.54,146.11s-3.94,4.67-4.43,6.52l5.72.72s5.23-5.87,5.47-5.95S138.54,146.11,138.54,146.11Z" fill="#fff"/>
    <path d="M139.83,153.85h-.06l-5.72-.73a.47.47,0,0,1-.35-.21.5.5,0,0,1-.07-.41c.51-1.94,4.37-6.52,4.53-6.72a.51.51,0,0,1,.47-.17c7.14,1.24,7.14,1.24,7.18,1.74a.54.54,0,0,1-.24.47c-.41.35-3.5,3.77-5.37,5.87A.51.51,0,0,1,139.83,153.85Zm-5-1.64,4.82.61c2.65-3,4-4.43,4.69-5.16-1.27-.25-3.78-.7-5.58-1A35.45,35.45,0,0,0,134.81,152.21Z" fill="#231f20"/>
    <path d="M122.17,95.52s-4.72,13.53-1.71,18.89S154,125.79,154,125.79l-17.25,21,6,2.15s26.77-7.09,29-16.75-25-26.81-25-26.81" fill="#231f20"/>
    <path d="M142.67,149.48l-.17,0-6-2.15a.49.49,0,0,1-.31-.33.48.48,0,0,1,.09-.45L153,126.12c-5-1-30.17-6.4-33-11.46-3.08-5.5,1.48-18.74,1.68-19.3a.51.51,0,0,1,.64-.31.49.49,0,0,1,.3.64c0,.13-4.61,13.37-1.75,18.48,2.37,4.24,24.74,9.47,33.15,11.13a.52.52,0,0,1,.38.32.51.51,0,0,1-.09.49L137.54,146.6l5.15,1.86c2.15-.59,26.44-7.45,28.5-16.34,2.13-9.21-24.54-26.11-24.81-26.28a.5.5,0,0,1,.53-.85c1.13.71,27.54,17.46,25.26,27.36s-28.26,16.82-29.37,17.11Z" fill="#231f20"/>
    <path d="M153.36,61.75a11.8,11.8,0,0,1-5.48-3.19,4.74,4.74,0,0,1-1.35-2.5,2.23,2.23,0,0,1,1.23-2.37A3.34,3.34,0,0,1,146.25,51a5.82,5.82,0,0,1,.72-3,4,4,0,0,1,3-2.48c-.51-1-1-2.28-.58-3.35a3.73,3.73,0,0,1,1.15-1.32,18.1,18.1,0,0,1,2.88-1.93,1.7,1.7,0,0,1,1.75-.2,6,6,0,0,1,4.58-4.37,5,5,0,0,1,3.24.34,19.53,19.53,0,0,1,2.67,2.24A6,6,0,0,1,171,38a4.13,4.13,0,0,1,1,4.08,9.1,9.1,0,0,1,3,2.54,4.42,4.42,0,0,1,.74,3.73,3,3,0,0,1-2.94,2.14,3.16,3.16,0,0,1,.22,4.16,3.86,3.86,0,0,1-4.16,1.11,1.36,1.36,0,0,0-.63-.12,1.52,1.52,0,0,0-.66.42c-.67.52-1.5.37-2.21.71a21.08,21.08,0,0,0-2.74,2,30.56,30.56,0,0,1-2.76,1.75,18.07,18.07,0,0,1-3.2,1.87c-1,.33-1.62-.11-2.6-.4Z" fill="#fff"/>
    <path d="M156,63a4,4,0,0,1-1.4-.32,6.63,6.63,0,0,0-.63-.21l-.75-.23h0a12.33,12.33,0,0,1-5.69-3.33A5.21,5.21,0,0,1,146,56.12a2.87,2.87,0,0,1,.87-2.47,4,4,0,0,1-1.15-2.57,6.25,6.25,0,0,1,.78-3.32,4.86,4.86,0,0,1,2.75-2.62A3.91,3.91,0,0,1,149,42a4.08,4.08,0,0,1,1.28-1.51,18.86,18.86,0,0,1,3-2,2.75,2.75,0,0,1,1.65-.42,6.53,6.53,0,0,1,4.82-4.2,5.48,5.48,0,0,1,3.55.38,20.87,20.87,0,0,1,2.61,2.13,6.47,6.47,0,0,1,5.53,1.26,4.69,4.69,0,0,1,1.27,4.2,9,9,0,0,1,2.8,2.49,4.94,4.94,0,0,1,.81,4.17,3.62,3.62,0,0,1-2.47,2.4,3.74,3.74,0,0,1-.34,4.06,4.32,4.32,0,0,1-4.71,1.27,1.27,1.27,0,0,0-.39-.1,1.08,1.08,0,0,0-.29.21l-.14.11a3.23,3.23,0,0,1-1.49.56,3.31,3.31,0,0,0-.81.21,9.87,9.87,0,0,0-1.78,1.26c-.3.25-.6.49-.89.7a29.67,29.67,0,0,1-2.8,1.77c-.35.2-.69.43-1,.67a8.62,8.62,0,0,1-2.27,1.24A2.6,2.6,0,0,1,156,63Zm-2.49-1.71.74.21.69.24a2.23,2.23,0,0,0,1.62.16,8.19,8.19,0,0,0,2-1.12c.36-.25.72-.49,1.09-.7.84-.49,1.82-1.07,2.72-1.72.27-.2.55-.43.84-.66a10.7,10.7,0,0,1,2-1.39,4.4,4.4,0,0,1,1.08-.3,2.25,2.25,0,0,0,1-.35l.11-.1a1.62,1.62,0,0,1,.79-.42,1.56,1.56,0,0,1,.8.12,3.38,3.38,0,0,0,3.67-.93,2.65,2.65,0,0,0-.17-3.48.5.5,0,0,1,.38-.87,2.49,2.49,0,0,0,2.42-1.79,3.92,3.92,0,0,0-.67-3.3,8.5,8.5,0,0,0-2.81-2.39.5.5,0,0,1-.23-.58,3.63,3.63,0,0,0-.91-3.58,5.53,5.53,0,0,0-4.83-.93h0a.51.51,0,0,1-.6-.26,25.82,25.82,0,0,0-2.44-2,4.4,4.4,0,0,0-2.91-.3,5.49,5.49,0,0,0-4.2,4,.53.53,0,0,1-.31.36.49.49,0,0,1-.47-.06c-.29-.21-.82,0-1.22.23a18.3,18.3,0,0,0-2.81,1.87,3.31,3.31,0,0,0-1,1.13c-.38.88.1,2,.57,2.94a.51.51,0,0,1,0,.48A.52.52,0,0,1,150,46c-1.4.08-2.3,1.57-2.62,2.21a5.36,5.36,0,0,0-.68,2.78A2.81,2.81,0,0,0,148,53.25a.51.51,0,0,1,.24.48.49.49,0,0,1-.32.42A1.74,1.74,0,0,0,147,56a4.25,4.25,0,0,0,1.22,2.22,11.58,11.58,0,0,0,5.25,3.06Z" fill="#231f20"/>
    <path d="M168.23,56.44s1.58,5.16.73,5.88-2.64-.44-2.64-.44" fill="#fff"/>
    <path d="M168.24,63.06a4.59,4.59,0,0,1-2.2-.77.5.5,0,1,1,.55-.83c.6.39,1.66.81,2,.48s-.13-2.88-.89-5.35a.49.49,0,0,1,.33-.62.48.48,0,0,1,.62.33c.63,2,1.55,5.59.58,6.41A1.6,1.6,0,0,1,168.24,63.06Z" fill="#231f20"/>
    <path d="M170.08,46.74a1.39,1.39,0,0,1,.4.86,9.16,9.16,0,0,1-.15,3.42,53.33,53.33,0,0,1-1.72,6.57c-.86,2.86-1.79,5.71-2.79,8.53-.63,1.79-5.35.44-6-.34l-1.37,7.4s-2.44-.05-5.73-2.92-3-3.78-3-3.78l2.74-8.21s3.11.94,6-2.23c.46-.5.85-1.39,1.4-1.78s1.46-.38,2.06-1.09a2.74,2.74,0,0,0,.56-2.4c0-.18-.09-.4,0-.53a.63.63,0,0,1,.31-.1,2.33,2.33,0,0,0,1.82-2.77c1.19.35,2.33-.61,3.21-1.49-.28.28,1.83.63,1.86.64A1.11,1.11,0,0,1,170.08,46.74Z" fill="#fff"/>
    <path d="M158.43,73.68h0c-.11,0-2.67-.08-6-3.05-3.17-2.77-3.3-3.91-3.21-4.28l2.76-8.24a.52.52,0,0,1,.62-.32c.11,0,2.86.79,5.52-2.09a5.08,5.08,0,0,0,.49-.67,4.23,4.23,0,0,1,1-1.18,3.53,3.53,0,0,1,1-.46,1.94,1.94,0,0,0,1-.54,2.27,2.27,0,0,0,.46-2,1,1,0,0,1,.18-1,.93.93,0,0,1,.55-.23,1.72,1.72,0,0,0,1.17-.79,1.74,1.74,0,0,0,.27-1.36.49.49,0,0,1,.13-.49.52.52,0,0,1,.49-.12c.94.28,1.94-.58,2.71-1.36h0a.5.5,0,0,1,.71,0,.65.65,0,0,1,.1.15,8.56,8.56,0,0,0,1.41.34l.18,0a1.79,1.79,0,0,1,.53.3h0a2,2,0,0,1,.57,1.14,9.85,9.85,0,0,1-.14,3.61,49,49,0,0,1-1.55,6l-.19.62c-.86,2.87-1.8,5.74-2.8,8.55a1.83,1.83,0,0,1-1.55,1.15,8.61,8.61,0,0,1-4.59-.82l-1.23,6.66A.51.51,0,0,1,158.43,73.68Zm-8.28-7.13c0,.19.38,1.14,2.88,3.33a10.92,10.92,0,0,0,5,2.74l1.29-6.94a.48.48,0,0,1,.36-.39.5.5,0,0,1,.51.16,7.14,7.14,0,0,0,4.37,1c.44-.08.71-.25.8-.5,1-2.79,1.92-5.66,2.78-8.51l.19-.62a48.76,48.76,0,0,0,1.52-5.88A9,9,0,0,0,170,47.7c-.08-.36-.13-.5-.23-.58h0a.7.7,0,0,0-.23-.13,9.56,9.56,0,0,1-1.68-.42A4.3,4.3,0,0,1,165.18,48a2.83,2.83,0,0,1-.47,1.46,2.73,2.73,0,0,1-1.78,1.21v0a3.27,3.27,0,0,1-.67,2.84,2.85,2.85,0,0,1-1.41.85,2.49,2.49,0,0,0-.74.33,3.37,3.37,0,0,0-.73.91,6.18,6.18,0,0,1-.6.8,6.86,6.86,0,0,1-6.06,2.47Z" fill="#231f20"/>
    <path d="M166.38,64a3.53,3.53,0,0,1-3.2-3.27" fill="#fff"/>
    <path d="M166.38,64.46h0a4,4,0,0,1-3.68-3.7.5.5,0,0,1,1-.15,3,3,0,0,0,2.73,2.85.5.5,0,0,1,0,1Z" fill="#231f20"/>
    <path d="M162.18,56.67a4.11,4.11,0,0,0-.22-2.21,6.07,6.07,0,0,0-.66-1.6,2,2,0,0,0-1.41-.93,1.81,1.81,0,0,0-1.38.56,3.33,3.33,0,0,0-.78,1.32A6.41,6.41,0,0,0,159,60.1l-.11-.21" fill="#fff"/>
    <path d="M159,60.6a.51.51,0,0,1-.38-.16,7,7,0,0,1-1.33-6.8,3.88,3.88,0,0,1,.89-1.5,2.31,2.31,0,0,1,1.78-.71,2.47,2.47,0,0,1,1.79,1.15,6.62,6.62,0,0,1,.72,1.74,4.54,4.54,0,0,1,.23,2.48.51.51,0,0,1-.62.35.5.5,0,0,1-.35-.61,3.55,3.55,0,0,0-.22-1.93,5.23,5.23,0,0,0-.6-1.48,1.46,1.46,0,0,0-1-.7,1.28,1.28,0,0,0-1,.42A2.89,2.89,0,0,0,158.2,54a6,6,0,0,0,.86,5.45.5.5,0,0,1,.25.23l.11.22a.52.52,0,0,1-.17.64A.6.6,0,0,1,159,60.6Z" fill="#231f20"/>
    <path d="M159.8,65.78a8,8,0,0,1-2.87-3.49s-1.12,4.42,2.26,6.78Z" fill="#231f20"/>
    <path d="M159.19,69.57a.5.5,0,0,1-.29-.09c-3.61-2.53-2.5-7.12-2.45-7.31a.5.5,0,0,1,.47-.38.49.49,0,0,1,.49.35,7.49,7.49,0,0,0,2.67,3.22.5.5,0,0,1,.21.51l-.61,3.29a.5.5,0,0,1-.3.37A.46.46,0,0,1,159.19,69.57ZM157.25,64a5.61,5.61,0,0,0,1.6,4.17l.4-2.15A9.66,9.66,0,0,1,157.25,64Z" fill="#231f20"/>
    <ellipse cx="166.84" cy="53.44" rx="1.07" ry="0.42" transform="translate(63.24 194.71) rotate(-71.51)" fill="#231f20"/>
    <path d="M162.92,73.18c-.47-1.42-9.62-12.39-16.27-9.73S126,86.29,122.17,95.52l25.12,12S165.52,81,162.92,73.18Z" fill="#522020"/>
    <path d="M152,88s2.28,12.45,10.91,16.1,27.52-1.5,27.52-1.5V93.13s-11.81,4.69-17.6,0-9.92-19.95-9.92-19.95Z" fill="#522020"/>
    <path d="M134.11,152.63s-3,5.47-2.17,6,13.65.11,13.37-.64-5.48-4.65-5.48-4.65Z" fill="#231f20"/>
    <path d="M135.6,159.4a12.53,12.53,0,0,1-3.92-.34c-.32-.19-1.26-.78,2-6.67a.51.51,0,0,1,.5-.26l5.71.73a.5.5,0,0,1,.24.09c1.6,1.2,5.36,4.07,5.65,4.87a.59.59,0,0,1-.2.67C144.94,159,139.51,159.4,135.6,159.4Zm-3.32-1.16c1.31.37,10.1,0,12.27-.41a61.27,61.27,0,0,0-4.91-4l-5.25-.66C133.28,155.22,132.23,157.6,132.28,158.24Zm0,.08h0Z" fill="#231f20"/>
    <path d="M123.57,179s-.82,5.8-.25,6.12,14.42.08,13.77-1-7.93-4.11-7.93-4.11Z" fill="#231f20"/>
    <path d="M126.67,185.77a19.36,19.36,0,0,1-3.6-.18c-.28-.16-.87-.49,0-6.63a.54.54,0,0,1,.2-.33.52.52,0,0,1,.38-.09l5.6,1a.19.19,0,0,1,.1,0c1.75.71,7.5,3.13,8.18,4.32a.64.64,0,0,1-.12.79C136.6,185.47,130.65,185.77,126.67,185.77Zm-3-.93h0Zm0-.1c1.32.19,10.68,0,12.72-.66a46.55,46.55,0,0,0-7.36-3.6l-5-.86A25.91,25.91,0,0,0,123.66,184.74Z" fill="#231f20"/>
    <path d="M137.81,122.35l-.12,0c-.57-.2-13.85-4.89-17.46-7.62a.37.37,0,0,1,.45-.59c3.52,2.65,17.12,7.45,17.26,7.5a.38.38,0,0,1,.23.48A.39.39,0,0,1,137.81,122.35Z" fill="#fff"/>
    <path d="M172.58,106.15c-1.66,0-3.47-.07-5.43-.24-12.42-1.06-17.8-20.21-18-21a.51.51,0,0,1,.36-.62.5.5,0,0,1,.61.35c0,.19,5.42,19.29,17.15,20.3,11.92,1,18.47-1.7,18.53-1.73a.51.51,0,0,1,.66.27.5.5,0,0,1-.26.65C185.94,104.21,181.29,106.15,172.58,106.15Z" fill="#231f20"/>
    <path d="M170.25,90.75a.51.51,0,0,1-.39-.19c-1.26-1.6-6.54-12-7.24-15.75a7.17,7.17,0,0,0-2.57-4.59.5.5,0,1,1,.54-.84,8,8,0,0,1,3,5.25c.68,3.59,5.91,13.87,7,15.31a.49.49,0,0,1-.08.7A.51.51,0,0,1,170.25,90.75Z" fill="#231f20"/>
  </g>
</svg>